<?xml version="1.0" standalone="no"?>
<!DOCTYPE svg PUBLIC "-//W3C//DTD SVG 20010904//EN"
 "http://www.w3.org/TR/2001/REC-SVG-20010904/DTD/svg10.dtd">
<svg version="1.0" xmlns="http://www.w3.org/2000/svg"
 width="1254.000000pt" height="1313.000000pt" viewBox="0 0 1254.000000 1313.000000"
 preserveAspectRatio="xMidYMid meet">
<metadata>
Created by potrace 1.13, written by Peter Selinger 2001-2015
</metadata>
<g transform="translate(0.000000,1313.000000) scale(0.100000,-0.100000)"
fill="#000000" stroke="none">
<path d="M6350 13006 c-16 -38 -30 -70 -30 -72 0 -2 -20 -48 -44 -101 -23 -54
-52 -118 -62 -143 -26 -61 -152 -311 -166 -327 -19 -23 -24 -14 -37 64 -17
100 -33 138 -26 61 3 -32 8 -82 11 -112 4 -30 4 -65 0 -79 -5 -21 -114 -180
-135 -197 -3 -3 -20 -23 -36 -45 -50 -67 -381 -451 -526 -610 -75 -82 -181
-202 -235 -265 -94 -111 -266 -304 -288 -325 -64 -60 -243 -286 -333 -420 -73
-109 -159 -275 -191 -370 -32 -95 -58 -201 -67 -272 -4 -29 -11 -53 -16 -53
-5 0 -9 -34 -9 -75 0 -41 4 -75 9 -75 5 0 12 -44 16 -97 7 -85 14 -112 55
-210 66 -155 129 -253 230 -353 147 -147 284 -236 406 -264 137 -32 319 -56
420 -56 68 0 242 31 319 56 191 62 241 91 365 209 108 103 166 141 200 130 26
-8 32 -34 31 -135 -1 -149 -40 -262 -207 -605 -34 -71 -76 -151 -92 -176 l-29
-45 -74 7 c-143 15 -269 39 -306 57 -22 11 -72 22 -118 26 -86 7 -202 31 -219
45 -6 5 -31 11 -56 15 -53 8 -194 49 -264 76 -45 18 -50 18 -61 3 -11 -15 -19
-14 -91 12 -43 16 -135 55 -204 87 -99 47 -131 58 -157 53 -17 -3 -34 -1 -38
5 -3 6 4 10 17 10 20 0 17 6 -27 45 -67 60 -213 134 -360 183 -146 49 -181 57
-190 42 -4 -6 -26 -20 -50 -31 -54 -25 -193 -158 -234 -223 -17 -28 -31 -61
-31 -74 0 -14 -9 -40 -21 -58 -11 -19 -19 -45 -17 -60 2 -21 13 -30 63 -50 33
-13 69 -28 80 -33 104 -47 364 -151 376 -151 6 0 9 7 5 15 -4 13 -2 13 14 5
11 -6 17 -16 14 -23 -3 -8 27 -28 78 -54 46 -23 94 -49 108 -57 152 -93 601
-269 840 -329 178 -45 205 -50 250 -49 25 0 50 -3 55 -8 11 -9 95 -25 109 -21
5 1 50 -5 100 -13 179 -29 257 -36 278 -25 15 8 27 8 44 -1 12 -7 31 -9 41 -5
10 4 71 9 135 11 110 3 119 2 145 -19 15 -13 40 -28 56 -35 15 -6 27 -19 27
-27 0 -9 9 -37 21 -62 11 -25 17 -48 14 -51 -4 -4 -34 8 -67 26 -66 36 -110
44 -348 62 -149 12 -325 32 -440 50 -36 6 -90 15 -120 20 -72 11 -221 45 -340
76 -80 21 -101 24 -130 14 -44 -14 -157 -9 -188 9 -27 15 -52 8 -52 -14 0 -10
10 -15 33 -15 17 0 38 -4 46 -9 22 -14 -24 -53 -57 -49 -25 3 -27 0 -23 -27 4
-41 10 -48 34 -41 25 6 47 -10 47 -34 0 -9 8 -25 19 -34 15 -14 23 -15 44 -5
14 6 25 19 25 28 0 9 4 27 8 40 7 23 5 24 -24 18 -18 -4 -43 -1 -57 5 -30 13
-33 48 -6 55 11 3 21 14 24 24 5 19 6 19 59 -1 29 -11 58 -27 64 -35 7 -9 27
-15 51 -15 21 0 48 -6 58 -14 17 -12 18 -16 5 -31 -13 -15 -12 -19 5 -31 27
-20 63 -17 75 7 16 28 50 21 70 -16 19 -35 41 -42 63 -20 18 17 72 20 82 5 4
-6 1 -18 -6 -26 -10 -13 -10 -17 2 -25 8 -5 20 -9 27 -9 20 0 11 -80 -10 -94
-13 -8 -21 -6 -35 6 -11 11 -24 14 -32 9 -20 -13 2 -47 39 -59 17 -6 33 -18
36 -26 9 -24 -14 -56 -42 -56 -25 0 -26 -2 -19 -37 9 -52 22 -73 44 -73 10 0
24 -7 31 -15 12 -14 26 -14 83 2 26 7 21 42 -8 55 -29 13 -32 32 -7 48 13 9
10 10 -17 4 -33 -6 -34 -6 -27 22 4 16 19 41 32 55 l25 26 -24 20 c-19 15 -23
25 -19 51 5 37 17 48 36 33 7 -6 28 -8 47 -5 46 6 79 -18 61 -46 -17 -28 -15
-36 14 -55 21 -13 28 -14 40 -4 13 10 20 10 35 0 21 -12 59 -6 59 10 0 14 42
11 74 -6 15 -8 39 -12 52 -9 29 8 32 -11 4 -26 -11 -6 -20 -19 -20 -29 0 -18
21 -26 96 -34 12 -1 32 -11 43 -21 19 -17 26 -18 55 -8 18 7 42 12 55 12 24 0
39 -26 23 -42 -5 -5 -8 -27 -5 -48 8 -54 -4 -107 -29 -130 l-21 -19 27 -32
c17 -20 25 -38 20 -48 -14 -34 -17 -150 -4 -166 22 -27 30 -5 30 80 l0 83 34
12 c18 6 42 20 51 30 10 11 30 20 45 20 23 0 31 7 44 40 11 27 22 40 35 40 12
0 21 9 25 25 4 16 13 25 26 25 20 0 20 -8 20 -565 l0 -564 -44 -20 c-76 -33
-85 -77 -27 -128 70 -60 73 -75 69 -454 -3 -301 -5 -338 -21 -362 -14 -22 -25
-27 -60 -27 -24 0 -48 -5 -55 -12 -7 -7 -12 -45 -12 -99 0 -70 3 -88 16 -93 9
-3 57 -6 107 -6 80 0 93 3 115 22 l23 23 18 -24 18 -23 163 12 c91 6 168 14
172 16 4 3 8 43 8 89 0 94 -8 105 -70 105 -86 0 -103 39 -108 257 l-4 172 47
81 c26 44 56 85 66 91 11 5 17 15 13 21 -4 6 -1 9 6 6 19 -6 202 -364 235
-459 33 -96 29 -123 -23 -146 -62 -29 -72 -41 -72 -93 0 -30 6 -52 15 -60 11
-9 12 -16 5 -25 -7 -9 -6 -16 6 -25 12 -11 40 -11 152 -1 266 24 452 49 470
64 11 8 12 28 7 82 -8 90 6 115 53 96 38 -16 62 -9 62 18 0 36 12 51 40 51 61
0 62 61 2 163 -57 98 -78 163 -117 362 -46 232 -44 225 -55 204 -6 -9 -4 -105
3 -235 11 -216 13 -478 2 -521 -3 -13 -11 -23 -19 -23 -19 0 -101 64 -124 97
-11 16 -79 145 -152 287 l-132 259 5 63 c4 56 8 67 36 90 38 32 39 44 2 83
-23 25 -37 31 -69 31 -23 0 -44 -4 -47 -10 -16 -25 -64 4 -65 39 0 7 52 101
116 208 95 160 114 197 103 209 -7 9 -20 12 -32 8 -49 -15 -102 102 -62 136
13 11 21 9 47 -10 l31 -23 18 24 c14 18 17 34 13 66 -4 29 -1 52 10 74 9 18
16 44 16 59 0 17 7 30 17 34 15 6 14 9 -5 28 l-22 22 -27 -25 c-16 -15 -36
-29 -46 -33 -26 -9 -16 -30 16 -34 33 -4 33 -9 2 -52 -14 -19 -25 -40 -25 -47
0 -21 -27 -15 -44 9 -20 28 -20 45 -1 82 8 15 15 29 15 31 0 7 -42 13 -60 8
-18 -5 -20 -11 -14 -48 8 -55 -2 -85 -27 -85 -27 0 -41 41 -27 81 14 41 -1 52
-61 44 -47 -5 -61 -17 -61 -51 0 -30 21 -52 55 -56 38 -4 43 -39 6 -48 -40 -9
-34 -25 14 -38 33 -9 51 -21 66 -45 41 -65 16 -133 -167 -462 -143 -258 -188
-330 -203 -330 -10 0 -14 90 -18 425 -3 357 -6 430 -20 459 -8 18 -17 70 -20
115 -3 58 -10 89 -24 108 l-19 28 29 -6 c23 -5 32 -2 40 14 16 29 14 109 -3
119 -40 24 -47 96 -14 139 22 27 23 35 20 179 -4 182 4 224 54 262 20 15 40
38 45 51 8 22 13 23 47 17 45 -8 34 -8 109 -6 49 1 66 5 82 22 16 17 23 19 41
9 17 -9 29 -9 50 0 20 8 34 9 48 1 21 -11 60 -8 250 21 42 6 95 13 117 15 130
12 135 13 135 42 0 32 37 61 51 39 5 -7 9 -21 9 -30 0 -23 19 -33 26 -13 4 9
13 13 23 10 10 -3 39 0 67 5 74 16 134 23 134 17 0 -3 -5 -18 -12 -32 -13 -30
-1 -45 39 -45 25 0 63 -43 63 -71 0 -21 -11 -23 -59 -9 l-33 9 54 -57 c64 -67
67 -79 67 -307 1 -77 5 -234 10 -350 6 -115 11 -257 13 -315 l3 -105 -32 -16
c-75 -37 -83 -73 -29 -123 49 -45 67 -89 73 -175 3 -42 11 -83 18 -91 12 -15
12 -81 0 -101 -4 -5 -1 -155 6 -332 6 -177 9 -343 5 -369 -4 -29 -22 -70 -45
-105 -33 -49 -40 -70 -46 -130 -4 -40 -11 -73 -17 -73 -19 0 -54 23 -80 54
l-27 31 -1 -66 c0 -64 1 -67 30 -79 41 -17 117 0 225 51 65 31 165 130 200
199 40 80 71 223 86 398 11 145 11 215 -7 572 -8 151 7 219 61 279 19 21 35
43 35 48 0 19 -42 53 -65 53 -46 0 -55 22 -55 138 0 59 -4 154 -10 212 -5 58
-12 182 -15 275 -12 337 -21 530 -26 544 -3 10 7 17 30 22 48 10 70 37 64 77
l-5 33 -82 -3 c-77 -3 -81 -4 -78 -25 5 -34 -14 -36 -51 -3 -43 38 -56 38 -92
0 -16 -16 -33 -30 -39 -30 -20 0 -86 34 -86 45 0 7 19 17 43 24 132 39 442
163 589 237 69 35 128 44 146 22 5 -7 28 -56 50 -108 l40 -95 86 -3 c66 -2 86
0 86 10 0 8 -36 45 -80 83 -43 39 -79 73 -80 78 0 16 58 6 75 -13 10 -11 23
-20 30 -20 15 0 7 58 -13 88 l-15 23 -26 -28 c-22 -23 -26 -25 -29 -10 -4 18
8 32 48 60 28 20 40 21 40 6 0 -15 170 -203 187 -207 26 -7 122 19 117 31 -2
7 -49 37 -104 67 -55 30 -100 59 -100 63 0 15 31 20 55 9 26 -12 39 -3 30 20
-3 7 -22 24 -43 37 -67 44 -82 62 -82 98 0 18 5 33 10 33 6 0 10 -12 10 -28 0
-24 18 -40 146 -130 80 -56 151 -102 159 -102 20 0 75 34 72 44 -3 9 -138 70
-201 90 -18 6 -18 7 -1 26 14 16 16 23 7 32 -9 9 -15 9 -24 0 -30 -30 -98 -6
-98 34 0 19 -7 29 -30 37 -25 9 -30 17 -30 43 0 30 3 33 51 44 72 17 203 8
264 -19 26 -11 49 -21 51 -21 2 0 10 13 19 30 21 40 19 99 -5 135 -11 17 -20
41 -20 56 0 50 -96 173 -195 249 -53 41 -58 43 -70 26 -10 -13 -18 -15 -31 -8
-9 5 -25 7 -35 5 -11 -3 -26 1 -35 8 -9 7 -34 15 -57 18 -40 6 -42 8 -44 41
-1 19 -2 41 -2 48 -1 6 -7 12 -15 12 -22 0 -29 19 -15 36 10 12 7 20 -15 43
-17 17 -35 27 -45 24 -18 -5 -71 63 -71 91 0 8 -4 18 -10 21 -5 3 -10 15 -10
25 0 46 -19 23 -44 -53 l-27 -81 25 -19 c15 -10 26 -28 26 -39 0 -28 28 -124
48 -166 12 -26 13 -35 3 -45 -9 -9 -21 -7 -52 11 -48 28 -62 22 -29 -13 13
-14 22 -26 19 -28 -2 -1 -29 -19 -60 -40 -30 -20 -64 -37 -74 -37 -20 0 -85
-46 -85 -61 0 -5 7 -9 15 -9 8 0 15 -5 15 -11 0 -7 -14 -8 -39 -4 -33 5 -52 0
-130 -39 -50 -25 -137 -64 -193 -86 -57 -22 -112 -45 -123 -50 -11 -5 -58 -8
-105 -7 l-85 3 -39 -38 c-46 -44 -94 -62 -144 -54 -20 4 -44 7 -52 7 -34 1
-172 -22 -211 -36 -23 -8 -56 -15 -73 -15 -17 0 -76 -14 -131 -31 -148 -44
-166 -49 -215 -49 -46 0 -46 0 -83 63 -36 63 -94 177 -137 272 -12 28 -34 75
-47 105 -92 201 -133 375 -112 472 22 101 68 86 239 -77 102 -97 178 -142 320
-188 128 -42 319 -77 385 -71 314 31 422 54 535 116 128 70 304 226 373 331
75 113 167 321 167 377 0 17 5 30 10 30 6 0 10 67 10 180 0 108 -4 180 -10
180 -5 0 -12 17 -16 38 -3 20 -13 62 -21 92 -8 30 -18 69 -23 85 -14 54 -51
138 -102 235 -65 120 -64 119 -182 280 -121 165 -178 232 -367 429 -8 9 -80
93 -160 186 -80 94 -197 226 -260 295 -113 124 -209 233 -263 300 -15 19 -45
53 -65 75 -134 148 -325 394 -386 498 -26 46 -27 53 -21 128 3 43 4 79 2 79
-3 0 -10 -25 -16 -55 -7 -33 -16 -53 -22 -49 -5 4 -40 68 -76 143 -72 146 -72
146 -157 351 -32 74 -59 137 -61 139 -2 2 -17 -26 -34 -63z m106 -171 c206
-482 267 -575 694 -1075 96 -113 224 -259 285 -324 60 -65 168 -187 239 -270
70 -83 188 -216 261 -296 352 -385 517 -650 589 -950 39 -163 45 -268 25 -434
-12 -102 -31 -157 -100 -296 -53 -108 -96 -166 -195 -262 -168 -164 -293 -230
-495 -262 -192 -30 -295 -38 -361 -26 -135 23 -176 32 -258 57 -142 42 -248
103 -345 199 -107 106 -154 136 -203 132 -50 -4 -72 -47 -72 -140 0 -155 66
-341 245 -693 126 -248 172 -320 307 -481 71 -85 83 -110 47 -99 -88 28 -454
56 -744 57 -262 0 -470 -12 -643 -38 -57 -9 -106 -13 -109 -10 -3 3 28 45 69
93 162 190 285 404 442 767 89 204 125 363 104 460 -16 78 -23 86 -72 86 -51
0 -82 -21 -206 -140 -67 -65 -104 -91 -175 -125 -102 -50 -220 -89 -315 -105
-36 -6 -89 -15 -118 -20 -33 -6 -81 -6 -125 -1 -40 5 -115 15 -167 21 -231 27
-367 94 -552 268 -83 79 -141 158 -196 267 -95 190 -103 225 -104 460 -1 118
3 157 25 245 77 319 253 603 607 985 46 50 149 167 229 260 80 94 182 209 226
256 108 115 424 481 556 645 204 252 285 394 474 832 27 62 53 111 58 109 5
-1 38 -70 73 -152z"/>
<path d="M6373 12768 c-6 -7 -34 -58 -63 -113 -107 -203 -134 -252 -193 -350
-107 -176 -231 -336 -513 -656 -71 -80 -250 -285 -399 -454 -148 -170 -357
-407 -462 -528 -106 -120 -193 -225 -193 -232 0 -25 22 -28 48 -6 95 75 206
94 277 46 20 -14 41 -25 45 -23 4 2 51 50 104 107 l96 105 0 85 c0 74 5 97 33
166 72 177 183 292 372 387 115 58 257 107 367 126 l103 18 37 50 c46 60 164
263 209 359 26 55 34 87 37 147 l4 78 -36 36 c-36 36 -38 36 -91 30 -60 -7
-67 0 -32 32 56 53 139 51 212 -5 48 -36 49 -36 106 9 29 23 46 29 92 30 46 1
61 -3 91 -26 49 -37 46 -50 -7 -42 -86 13 -137 -35 -137 -131 0 -83 32 -158
171 -394 100 -171 103 -174 196 -188 82 -13 275 -73 358 -112 87 -40 208 -124
262 -181 115 -123 183 -277 183 -417 0 -70 -5 -61 127 -205 l63 -69 49 27 c82
44 174 31 266 -39 19 -15 39 -24 45 -20 15 10 12 41 -7 56 -9 8 -163 182 -342
388 -179 206 -434 497 -567 646 -494 557 -615 722 -813 1115 -41 80 -77 149
-81 153 -4 4 -11 2 -17 -5z"/>
<path d="M6357 12023 c-3 -5 -13 -40 -22 -78 -26 -116 -128 -355 -179 -424
-14 -19 -26 -40 -26 -47 0 -6 18 -23 39 -37 68 -45 118 -133 141 -247 19 -97
-22 -190 -101 -230 -46 -24 -82 -25 -104 -4 -14 15 -12 18 28 44 107 68 123
180 39 265 -67 67 -160 66 -224 -3 -54 -56 -127 -238 -112 -277 3 -7 36 -33
73 -58 187 -124 331 -316 444 -589 27 -64 29 -63 107 107 31 67 76 150 100
185 63 92 200 231 284 287 39 27 74 53 78 58 23 30 -40 205 -98 275 -72 85
-189 80 -257 -12 -12 -17 -22 -49 -25 -82 -5 -67 19 -114 82 -154 22 -14 43
-27 45 -29 2 -1 -2 -9 -9 -18 -25 -30 -119 -7 -162 41 -78 87 -54 279 48 393
25 27 53 53 64 56 29 9 31 32 4 64 -21 25 -78 138 -129 256 -12 28 -35 101
-67 215 -10 33 -19 46 -35 48 -11 2 -23 -1 -26 -5z"/>
<path d="M5810 11301 c-164 -44 -254 -85 -370 -166 -99 -71 -154 -128 -184
-195 -29 -66 -43 -144 -27 -155 7 -3 46 15 89 42 128 82 242 127 366 146 80
12 80 12 88 47 21 86 43 139 85 203 24 38 42 76 39 83 -6 17 -4 17 -86 -5z"/>
<path d="M6873 11313 c-20 -7 -16 -17 36 -97 31 -48 55 -99 66 -143 9 -37 19
-73 20 -80 2 -6 25 -14 52 -18 137 -17 279 -71 409 -155 33 -22 66 -40 72 -40
25 0 12 86 -25 169 -39 88 -225 234 -368 289 -128 49 -242 82 -262 75z"/>
<path d="M5576 10844 c-82 -18 -158 -55 -246 -119 -71 -53 -223 -197 -302
-288 -57 -66 -57 -66 22 -109 55 -30 232 -103 314 -130 34 -10 144 -37 246
-59 307 -67 341 -56 138 45 -173 86 -329 191 -341 229 -13 39 -2 71 38 116 46
51 86 68 195 88 84 15 95 15 143 0 90 -28 141 -68 185 -144 53 -90 78 -167 91
-283 12 -111 5 -229 -15 -237 -8 -3 -60 18 -116 46 -115 56 -152 67 -389 116
-183 37 -259 64 -454 159 -118 58 -132 62 -147 48 -22 -19 -135 -206 -172
-287 -16 -33 -54 -134 -84 -225 l-56 -165 0 -140 c0 -160 12 -229 59 -332 44
-96 134 -247 185 -312 71 -90 199 -154 363 -182 69 -12 87 -11 165 5 48 10 96
23 106 28 18 10 19 11 2 23 -9 7 -34 16 -54 20 -64 12 -224 76 -282 113 -93
59 -180 156 -229 255 -42 85 -44 92 -48 200 -6 143 12 230 71 351 110 222 245
311 493 323 120 6 190 -11 331 -82 151 -76 234 -176 303 -363 52 -141 110
-262 125 -262 20 0 23 14 13 56 -58 225 -60 307 -15 519 69 326 67 311 56 377
-14 90 -54 207 -110 326 -39 81 -64 118 -117 174 -99 102 -122 112 -273 115
-84 2 -148 -3 -194 -13z"/>
<path d="M6885 10851 c-141 -37 -267 -200 -356 -462 -42 -125 -46 -258 -11
-394 69 -266 77 -408 33 -580 -16 -60 -27 -113 -24 -117 21 -37 70 48 143 246
71 193 157 296 312 373 132 66 179 78 298 78 246 0 398 -88 502 -291 59 -114
74 -161 89 -269 29 -219 -67 -420 -266 -559 -73 -52 -204 -105 -323 -131 -23
-5 -32 -12 -30 -23 4 -20 124 -50 209 -51 118 -2 319 73 393 146 75 75 224
325 254 428 38 131 43 319 11 435 -33 121 -88 279 -128 365 -52 112 -162 285
-181 285 -9 0 -79 -31 -155 -69 -183 -90 -254 -114 -467 -156 -191 -38 -267
-62 -386 -125 -53 -27 -80 -36 -87 -29 -15 15 -19 204 -5 284 20 118 71 237
128 298 31 33 99 70 158 86 32 9 61 8 129 -4 95 -17 135 -33 178 -74 59 -54
72 -110 35 -156 -30 -38 -157 -118 -308 -194 -143 -72 -163 -87 -135 -97 33
-13 395 66 557 122 130 44 328 141 328 159 0 23 -246 270 -333 336 -91 68
-160 106 -232 126 -58 16 -286 26 -330 14z"/>
<path d="M4475 10317 c-37 -57 -133 -288 -153 -367 -43 -174 -58 -337 -44
-478 8 -81 16 -105 60 -197 68 -140 135 -237 219 -316 84 -79 140 -118 212
-147 103 -42 111 -24 34 71 -130 158 -214 309 -239 432 -30 145 -1 384 67 552
12 30 11 33 -18 60 -61 57 -95 163 -97 307 -1 106 -12 127 -41 83z"/>
<path d="M8248 10334 c-4 -3 -4 -38 -1 -78 7 -86 -10 -176 -50 -266 -6 -14
-26 -42 -45 -62 l-35 -37 21 -48 c43 -101 64 -204 69 -344 4 -108 2 -150 -12
-205 -30 -121 -121 -281 -234 -412 -82 -96 -68 -117 44 -68 160 72 300 220
410 440 49 95 58 123 67 196 19 164 -12 435 -67 589 -14 37 -45 109 -70 160
-25 50 -45 95 -45 100 0 8 -33 41 -42 41 -2 0 -7 -3 -10 -6z"/>
<path d="M6356 10158 c-9 -12 -16 -29 -16 -37 0 -19 -84 -305 -109 -370 -17
-45 -17 -53 -5 -58 8 -3 16 -4 18 -2 1 2 28 44 60 92 73 113 80 113 159 -5 74
-113 99 -116 61 -8 -21 60 -69 220 -89 300 -17 67 -38 110 -55 110 -5 0 -16
-10 -24 -22z"/>
<path d="M6334 9720 c-51 -33 -59 -66 -59 -247 0 -181 5 -198 77 -238 l36 -19
41 27 c55 37 64 74 59 262 -3 163 -8 179 -65 216 -35 24 -50 24 -89 -1z"/>
<path d="M6282 8727 c-5 -7 -18 -37 -30 -67 -11 -30 -53 -139 -93 -243 -44
-113 -69 -191 -63 -196 5 -5 52 -6 104 -2 l95 6 7 175 c3 96 9 209 12 252 4
60 2 77 -9 81 -7 3 -18 0 -23 -6z"/>
<path d="M6454 8564 c3 -93 7 -203 7 -246 1 -42 5 -81 8 -86 8 -13 198 -26
205 -14 3 5 -10 45 -29 90 -18 44 -41 100 -49 124 -67 188 -113 293 -130 296
-18 4 -19 -3 -12 -164z"/>
<path d="M6130 8160 c-11 -11 -20 -26 -20 -34 0 -7 9 -25 20 -39 11 -14 20
-28 20 -31 0 -3 -38 -6 -83 -6 -96 0 -92 3 -157 -109 -24 -40 -70 -108 -102
-149 -61 -80 -70 -102 -40 -102 40 0 498 32 510 35 10 4 12 42 10 167 l-3 163
-35 1 c-53 2 -53 2 -36 29 21 32 20 58 -2 78 -25 23 -58 21 -82 -3z"/>
<path d="M6550 8160 c-23 -23 -24 -36 -5 -70 22 -38 18 -42 -25 -35 -37 6 -40
5 -46 -21 -6 -24 2 -303 9 -310 3 -3 451 -34 496 -34 38 0 42 27 10 56 -12 10
-52 66 -90 124 -38 58 -80 122 -94 143 l-25 37 -86 0 -85 0 20 29 c27 38 27
66 -1 85 -30 21 -54 20 -78 -4z"/>
<path d="M7096 12572 c-5 -8 -49 -152 -96 -312 -15 -52 -29 -101 -31 -108 -6
-20 29 -41 40 -24 8 13 78 328 91 410 7 41 6 50 -4 34z"/>
<path d="M5611 12526 c-1 -32 85 -393 98 -415 14 -22 44 -5 38 22 -7 32 -113
368 -125 397 l-11 25 0 -29z"/>
<path d="M4934 12205 c129 -243 171 -314 188 -315 9 0 19 4 23 9 7 13 -232
392 -258 408 -6 3 15 -42 47 -102z"/>
<path d="M3170 11567 c0 -2 20 -24 44 -49 47 -49 98 -146 112 -213 9 -42 10
-239 3 -415 -4 -110 5 -180 23 -180 6 0 8 10 5 23 -6 21 2 125 24 312 14 121
14 118 1 215 -19 132 -81 238 -171 288 -22 13 -41 22 -41 19z"/>
<path d="M9468 11527 c-84 -64 -131 -162 -144 -297 -8 -83 -8 -77 6 -195 6
-55 15 -152 19 -215 6 -106 8 -113 20 -85 10 23 12 69 6 200 -4 94 -6 197 -5
230 3 149 41 258 121 348 48 55 38 61 -23 14z"/>
<path d="M11226 11456 c-64 -93 -228 -229 -468 -389 -116 -78 -118 -79 -215
-93 -143 -20 -166 -24 -188 -34 -11 -4 -39 -15 -62 -24 -71 -26 -191 -86 -327
-163 -70 -41 -151 -85 -180 -99 -28 -14 -74 -40 -103 -57 -28 -18 -66 -41 -85
-52 l-33 -20 38 -3 c74 -6 135 17 329 125 276 152 531 273 547 257 8 -7 -23
-35 -87 -80 -127 -89 -272 -221 -272 -249 0 -15 27 0 78 44 31 27 147 111 257
187 193 134 201 139 247 137 63 -3 167 -54 213 -104 19 -21 35 -34 35 -29 0
23 -100 109 -158 136 -34 16 -62 35 -62 41 0 7 13 19 29 28 57 29 277 200 355
274 85 82 159 182 154 208 -2 10 -17 -5 -42 -41z"/>
<path d="M1440 11492 c0 -25 55 -99 134 -181 74 -76 222 -194 353 -281 29 -19
53 -40 53 -45 0 -6 -26 -22 -58 -38 -60 -28 -142 -91 -142 -109 0 -5 17 5 37
22 45 40 123 75 183 83 43 5 50 2 135 -55 186 -127 361 -254 402 -291 24 -22
47 -36 54 -32 17 11 -110 134 -238 232 -62 46 -115 89 -118 94 -27 43 191 -53
493 -218 183 -99 229 -120 300 -135 113 -25 127 -11 35 35 -38 20 -75 42 -82
51 -8 9 -19 16 -25 16 -6 0 -87 43 -180 95 -93 52 -171 95 -172 95 -2 0 -39
18 -84 39 -44 22 -97 45 -117 51 -21 7 -44 18 -52 24 -8 6 -28 11 -45 12 -17
1 -76 8 -131 16 -95 14 -105 18 -185 70 -270 179 -424 304 -518 423 -18 22
-32 34 -32 27z"/>
<path d="M9884 11311 c-50 -40 -126 -132 -211 -255 -26 -39 -52 -70 -57 -70
-5 -1 -16 14 -25 31 -23 48 -31 40 -15 -14 8 -27 12 -58 9 -70 -9 -36 -204
-322 -236 -345 -30 -23 -39 -48 -15 -48 17 0 78 66 150 163 92 125 96 115 20
-58 -24 -55 -44 -106 -44 -113 0 -9 10 -12 27 -10 24 3 31 15 68 103 30 72 45
126 54 195 l12 95 94 141 c52 78 127 176 166 218 78 83 79 98 3 37z"/>
<path d="M2780 11334 c0 -3 27 -35 59 -71 33 -35 103 -128 155 -206 l96 -142
10 -92 c14 -129 80 -295 120 -306 34 -9 34 17 0 89 -48 101 -62 141 -58 161 2
13 25 -12 77 -82 79 -107 126 -154 154 -155 24 0 21 17 -5 31 -33 17 -47 35
-165 211 l-107 158 11 53 c13 62 10 70 -12 28 -9 -18 -20 -29 -25 -26 -6 4
-29 34 -52 68 -66 98 -97 137 -172 215 -64 66 -86 82 -86 66z"/>
<path d="M11608 11244 c-5 -4 -8 -48 -8 -98 0 -96 -25 -188 -70 -262 -55 -88
-196 -178 -339 -215 -94 -25 -306 -32 -506 -17 -104 8 -160 8 -215 -1 -74 -11
-209 -65 -196 -78 3 -3 16 -2 29 4 82 39 191 47 362 24 439 -57 665 -10 815
170 26 31 60 84 75 116 15 32 31 66 36 75 5 10 9 27 9 39 0 11 5 29 10 40 12
21 9 215 -2 203z"/>
<path d="M1100 11043 c1 -77 74 -217 160 -304 139 -141 345 -186 685 -149 209
23 289 29 319 24 69 -11 137 -28 142 -36 7 -11 24 -10 24 1 0 15 -113 59 -184
72 -55 9 -112 9 -265 -1 -241 -15 -245 -15 -249 28 -2 17 -7 32 -12 32 -5 0
-10 -15 -12 -32 l-3 -33 -60 4 c-151 9 -327 84 -416 178 -52 55 -109 164 -109
207 0 14 -4 28 -10 31 -6 4 -10 -6 -10 -22z"/>
<path d="M900 10616 c0 -7 29 -58 65 -112 139 -214 332 -301 741 -334 322 -25
1222 -36 1244 -14 7 7 -12 33 -55 79 -36 39 -95 106 -130 151 l-64 80 -68 -3
c-37 -2 -118 -8 -179 -13 -273 -24 -739 -7 -1094 41 -241 33 -319 55 -412 120
-31 22 -48 24 -48 5z"/>
<path d="M11785 10598 c-63 -40 -134 -67 -205 -79 -185 -31 -329 -47 -610 -70
-151 -12 -600 -7 -800 9 -58 5 -109 7 -115 5 -5 -2 -28 -29 -50 -60 -22 -31
-77 -95 -122 -143 -46 -49 -83 -92 -83 -98 0 -22 441 -28 895 -12 490 19 687
50 855 136 123 62 188 125 267 256 60 99 54 110 -32 56z"/>
<path d="M2765 10540 c-11 -17 15 -49 157 -192 143 -146 199 -182 318 -208 59
-13 588 -14 754 -2 l90 7 57 144 c32 79 67 156 78 172 12 16 21 33 21 39 0 11
-72 7 -170 -10 -58 -11 -208 -17 -548 -25 -111 -3 -248 -9 -303 -14 -135 -13
-262 10 -383 70 -67 33 -63 32 -71 19z"/>
<path d="M9940 10530 c-45 -25 -148 -59 -230 -75 -50 -10 -91 -11 -175 -3 -60
5 -252 11 -425 13 -271 2 -529 17 -552 31 -26 16 -8 -35 57 -169 l76 -154 46
-7 c25 -3 78 -6 117 -6 39 0 148 -7 241 -15 376 -32 484 -16 632 97 74 57 263
263 263 288 0 24 -5 24 -50 0z"/>
<path d="M1290 10145 c0 -42 41 -136 78 -177 79 -88 322 -221 468 -258 190
-47 265 -54 584 -54 437 -1 852 12 867 27 7 7 15 26 19 43 5 27 1 33 -36 59
-76 53 -160 168 -160 221 0 50 -18 58 -112 49 -125 -11 -837 -8 -1063 5 -322
17 -508 46 -583 91 -45 26 -62 24 -62 -6z"/>
<path d="M11413 10155 c-64 -45 -275 -79 -588 -95 -177 -9 -793 -13 -1110 -6
l-60 1 -7 -48 c-5 -38 -19 -65 -63 -123 -32 -41 -60 -74 -64 -74 -4 0 -23 -15
-44 -33 -38 -36 -41 -62 -9 -90 18 -15 133 -21 734 -34 535 -11 768 34 1035
201 118 73 147 98 179 152 32 54 62 135 56 152 -5 16 -33 15 -59 -3z"/>
<path d="M8733 10043 c21 -132 31 -157 67 -174 74 -36 450 -61 579 -39 66 11
80 17 121 56 54 50 85 111 76 147 l-6 25 -157 -5 c-105 -3 -219 0 -340 11
-100 9 -218 16 -264 16 l-82 0 6 -37z"/>
<path d="M3184 10051 c-2 -2 -4 -18 -4 -35 0 -60 80 -155 150 -178 50 -16 656
-24 675 -8 8 6 19 37 25 68 6 31 16 74 21 96 6 21 7 42 2 47 -8 8 -861 18
-869 10z"/>
<path d="M8787 9803 c-3 -5 -3 -40 0 -79 5 -64 8 -73 30 -83 13 -6 32 -11 41
-11 16 0 109 -33 146 -52 10 -5 35 -12 54 -14 20 -3 41 -9 48 -15 19 -15 153
9 201 37 49 28 73 67 73 119 0 45 -14 51 -81 35 -28 -7 -85 -12 -127 -12 -97
1 -278 37 -314 62 -28 20 -63 26 -71 13z"/>
<path d="M3380 9735 c-29 -35 8 -109 77 -156 l45 -30 251 1 c138 0 255 4 260
9 5 5 4 34 -2 66 -6 31 -8 61 -5 67 3 5 0 15 -6 23 -10 12 -57 15 -271 15
-161 0 -260 4 -264 10 -10 15 -71 12 -85 -5z"/>
<path d="M1831 9631 c-53 -34 152 -233 267 -260 55 -13 321 -41 387 -41 51 0
80 22 91 67 3 16 22 56 40 91 19 35 32 67 30 71 -3 4 -95 11 -204 14 -184 6
-453 34 -547 57 -49 12 -47 12 -64 1z"/>
<path d="M10830 9625 c-115 -24 -311 -44 -480 -51 -91 -3 -170 -7 -177 -9 -8
-3 0 -27 23 -72 19 -37 38 -88 42 -113 9 -54 9 -54 177 -39 250 22 290 33 394
113 92 71 151 177 101 182 -8 1 -44 -4 -80 -11z"/>
<path d="M2870 9575 c-102 -7 -187 -13 -189 -14 -11 -4 14 -109 34 -141 50
-80 78 -89 217 -70 40 5 145 19 233 30 88 11 193 25 233 30 40 6 197 10 348
10 l275 0 -3 28 -3 27 -120 7 c-66 4 -196 11 -290 16 -177 8 -196 12 -268 66
-24 18 -44 21 -155 22 -70 1 -210 -4 -312 -11z"/>
<path d="M9464 9581 c-18 -4 -45 -18 -62 -30 -38 -26 -92 -46 -154 -55 -82
-12 -84 -47 -3 -59 22 -3 105 -17 185 -30 80 -14 183 -30 230 -36 47 -6 120
-15 163 -21 43 -5 106 -10 141 -10 59 0 65 2 99 35 20 20 39 48 43 63 3 15 13
42 22 60 30 59 16 66 -144 73 -323 15 -491 18 -520 10z"/>
<path d="M8777 9563 c-4 -3 -7 -48 -7 -99 0 -87 2 -95 24 -109 13 -9 53 -18
89 -22 58 -5 72 -3 120 20 29 15 60 38 67 52 12 22 11 27 -6 46 -20 22 -27 26
-133 65 -35 13 -71 30 -81 39 -17 15 -61 21 -73 8z"/>
<path d="M2602 9365 c-16 -36 -15 -100 3 -134 15 -30 169 -171 186 -171 5 0 9
-7 7 -16 -2 -9 7 -20 20 -25 17 -6 22 -5 22 7 0 8 -7 17 -15 20 -17 7 -10 24
10 24 8 0 32 -17 55 -38 29 -28 40 -34 40 -22 0 9 -9 25 -20 35 -11 10 -20 22
-20 27 0 16 20 8 55 -23 19 -17 35 -28 35 -25 0 17 -32 66 -52 80 -27 19 -18
32 12 16 12 -6 24 -9 27 -7 8 9 -60 54 -154 102 -95 48 -153 97 -174 147 -14
35 -22 35 -37 3z"/>
<path d="M10121 9362 c-20 -49 -92 -109 -181 -152 -47 -22 -96 -49 -110 -60
l-25 -20 28 0 c15 0 27 -4 27 -10 0 -5 -6 -10 -13 -10 -23 0 -77 -73 -77 -105
0 -8 5 -15 10 -15 6 0 10 9 10 19 0 24 54 71 82 71 17 0 15 -4 -11 -26 -17
-14 -31 -32 -31 -40 0 -20 5 -18 44 22 25 26 42 35 63 34 47 -3 50 -2 132 70
98 87 119 136 90 219 -14 38 -23 39 -38 3z"/>
<path d="M9123 9340 c-37 -8 -95 -41 -100 -57 -2 -6 15 -23 39 -36 48 -28 81
-40 357 -126 235 -74 250 -74 288 6 15 32 44 70 70 91 23 20 43 39 43 43 0 3
-28 9 -62 13 -35 4 -162 20 -283 36 -263 34 -310 38 -352 30z"/>
<path d="M3270 9310 c-107 -16 -212 -29 -232 -29 -43 -1 -59 -19 -32 -34 34
-18 87 -81 106 -125 11 -24 26 -46 34 -49 16 -6 70 8 254 67 69 22 154 45 190
52 36 6 69 15 74 19 5 4 -8 28 -28 52 -20 25 -35 51 -34 58 5 24 -122 19 -332
-11z"/>
<path d="M3668 9334 c-22 -22 21 -83 77 -112 11 -5 85 -11 165 -13 l145 -4 3
27 c2 15 -4 40 -12 56 -14 27 -20 30 -88 36 -152 13 -283 18 -290 10z"/>
<path d="M2287 9247 c-14 -39 70 -120 175 -170 120 -58 254 -84 265 -51 2 6
-29 46 -69 90 -40 43 -82 91 -93 105 -19 26 -25 27 -147 32 -93 4 -128 3 -131
-6z"/>
<path d="M10303 9251 c-87 -6 -92 -7 -114 -36 -13 -16 -51 -60 -86 -98 -35
-37 -63 -72 -63 -77 0 -6 11 -15 25 -20 31 -12 91 0 188 36 112 43 238 150
223 189 -6 16 -5 16 -173 6z"/>
<path d="M8806 9181 c-9 -10 -14 -24 -11 -32 12 -32 304 -219 388 -249 34 -13
45 -11 182 34 80 27 145 52 145 57 0 4 -19 13 -42 19 -45 11 -248 79 -448 149
-128 45 -188 51 -214 22z"/>
<path d="M3670 9134 c-152 -47 -385 -131 -383 -139 1 -5 28 -17 60 -27 32 -10
95 -31 140 -45 l82 -27 68 32 c84 39 184 59 217 44 13 -6 26 -9 28 -6 3 2 -3
28 -13 57 -21 59 -24 93 -9 102 43 26 -110 33 -190 9z"/>
<path d="M3918 9120 c-12 -7 -18 -23 -18 -44 0 -63 117 -176 181 -176 25 0 59
26 59 46 0 28 -55 142 -77 158 -29 21 -120 31 -145 16z"/>
<path d="M10527 9110 c-3 -8 -8 -27 -11 -42 -8 -33 -59 -94 -96 -113 -15 -8
-57 -19 -93 -26 -71 -13 -81 -25 -56 -71 8 -15 8 -23 0 -31 -9 -9 -13 -6 -17
10 -4 13 -21 28 -45 37 -50 20 -59 20 -59 0 0 -10 6 -14 14 -11 8 3 22 0 32
-8 18 -13 18 -14 -1 -52 -27 -54 -29 -60 -14 -45 23 22 40 15 33 -15 -6 -22
-4 -25 12 -20 72 22 68 23 61 -16 -3 -21 -2 -37 3 -37 10 0 133 110 139 124 2
5 19 23 37 40 44 42 70 93 78 152 7 51 -7 151 -17 124z"/>
<path d="M2213 9074 c-9 -25 5 -132 23 -166 9 -18 34 -50 56 -73 116 -119 174
-175 182 -175 4 0 5 16 2 35 -5 27 -3 37 9 41 9 4 21 2 28 -5 18 -18 27 -13
27 15 0 21 4 24 20 19 24 -8 24 -5 5 42 -21 49 -19 53 15 53 27 0 40 17 25 32
-10 10 -95 -36 -101 -54 -9 -30 -27 -21 -20 10 15 60 13 65 -29 74 -120 26
-168 56 -206 130 -21 42 -27 45 -36 22z"/>
<path d="M8705 9081 c-7 -13 30 -119 54 -151 17 -23 25 -25 106 -28 49 -2 92
1 98 7 6 6 -34 38 -109 88 -66 43 -120 81 -122 86 -5 10 -20 9 -27 -2z"/>
<path d="M3009 8917 c-133 -52 -295 -169 -314 -227 -8 -23 -18 -35 -30 -35
-32 0 -74 -84 -78 -153 -2 -44 0 -47 38 -68 62 -36 157 -53 323 -58 84 -3 161
-10 172 -16 28 -15 40 -12 40 9 0 33 22 36 46 8 13 -15 27 -27 31 -27 12 0 14
40 2 61 -14 26 11 111 34 117 11 3 16 10 13 19 -4 9 1 17 14 20 31 8 6 31 -27
25 -24 -5 -26 -3 -20 25 7 36 -1 48 -20 31 -10 -8 -17 -8 -25 0 -15 15 1 34
24 26 17 -5 19 -3 13 16 -9 27 19 70 45 70 29 0 25 12 -22 59 -64 64 -148 121
-177 120 -14 0 -51 -10 -82 -22z"/>
<path d="M9585 8900 c-93 -74 -124 -105 -125 -122 0 -10 6 -18 13 -18 8 0 22
-9 32 -20 15 -16 16 -24 6 -48 -6 -15 -10 -43 -9 -62 3 -29 0 -35 -17 -36 -38
-2 -45 -4 -45 -13 0 -5 9 -13 21 -16 11 -4 18 -13 15 -20 -2 -7 3 -15 12 -17
22 -6 48 -96 32 -112 -11 -11 -14 -59 -4 -69 4 -3 19 7 35 24 30 32 49 31 49
-3 0 -17 4 -19 23 -13 12 4 90 12 172 16 83 5 176 14 209 20 71 13 164 52 172
73 17 44 -48 191 -84 191 -10 0 -21 13 -27 32 -14 42 -34 63 -121 123 -94 65
-213 122 -267 126 -37 3 -48 -1 -92 -36z"/>
<path d="M1320 8255 c-130 -29 -286 -107 -375 -188 -50 -45 -74 -76 -102 -135
-37 -76 -37 -79 -37 -197 1 -136 20 -221 81 -365 49 -115 88 -179 192 -318
124 -166 274 -305 479 -444 18 -13 47 -34 63 -47 l30 -24 15 22 c22 30 36 26
73 -19 34 -43 53 -51 50 -22 -5 52 2 80 21 85 10 3 27 -1 37 -9 27 -20 33 -17
33 15 0 36 -15 47 -44 32 -26 -15 -76 1 -76 23 0 13 -119 96 -136 96 -4 0 -15
6 -23 14 -28 24 -132 76 -152 76 -10 0 -19 6 -19 14 0 8 -39 48 -88 89 -48 41
-94 82 -102 92 -8 9 -24 21 -37 26 -12 4 -29 23 -38 41 -8 18 -40 65 -70 103
-49 62 -98 150 -149 266 -56 128 -61 320 -12 427 55 118 211 235 372 277 32 8
95 15 139 16 172 0 300 -46 395 -145 44 -46 70 -58 70 -33 0 32 -83 124 -151
167 -25 17 -72 39 -105 51 -78 27 -243 35 -334 14z"/>
<path d="M4035 7888 c-2 -7 -3 -20 -2 -28 1 -8 -32 -46 -73 -85 -41 -38 -76
-76 -78 -82 -3 -10 17 -13 77 -13 92 0 89 -2 137 109 l28 64 -28 23 c-30 26
-54 31 -61 12z"/>
<path d="M10635 7714 l-38 -25 -28 20 c-37 28 -60 26 -90 -5 -20 -21 -29 -24
-54 -19 -47 11 -118 9 -143 -4 -32 -17 -29 -49 6 -57 15 -4 39 -15 53 -25 26
-18 27 -23 28 -111 1 -71 5 -96 18 -110 14 -16 15 -23 5 -38 -7 -11 -12 -49
-12 -84 0 -53 4 -70 23 -91 20 -24 25 -26 50 -14 20 9 31 9 39 1 8 -8 0 -20
-28 -47 -21 -20 -45 -40 -53 -44 -15 -9 -16 -110 -2 -256 4 -44 6 -84 4 -90
-6 -15 -93 -68 -100 -61 -3 3 -9 85 -14 182 -6 135 -11 181 -23 192 -22 22
-42 9 -82 -54 -34 -53 -38 -56 -67 -49 -136 30 -159 32 -221 19 -186 -39 -346
-189 -418 -393 -35 -100 -66 -224 -73 -296 -7 -68 -25 -105 -51 -105 -13 0
-74 -65 -74 -80 0 -5 18 -21 40 -35 55 -35 65 -55 90 -179 33 -168 47 -215 90
-301 43 -86 63 -112 126 -161 31 -25 43 -29 56 -20 26 16 72 -4 76 -33 3 -21
7 -23 45 -17 64 10 166 44 203 67 18 11 34 30 36 42 2 15 10 22 25 22 12 0 33
11 47 24 20 19 26 34 26 67 0 24 6 48 13 54 6 6 32 25 57 44 28 21 50 47 57
67 7 19 28 80 47 137 26 76 36 120 36 166 0 34 -3 65 -6 69 -12 12 -55 -17
-60 -42 -18 -83 -51 -178 -94 -266 -40 -84 -56 -106 -99 -139 -28 -21 -69 -45
-91 -52 -49 -17 -123 -8 -146 17 -9 11 -25 19 -36 19 -13 0 -18 7 -18 26 0 14
-11 58 -24 97 -13 40 -32 114 -42 166 -17 89 -17 97 -1 160 13 48 27 76 52
101 19 20 35 40 35 44 0 14 -34 35 -57 36 -48 0 -53 8 -53 79 1 128 28 282 61
346 79 152 202 165 324 34 28 -30 64 -80 80 -113 17 -32 44 -75 61 -95 31 -35
32 -36 52 -17 14 12 22 33 24 65 3 40 6 46 23 43 38 -6 70 -38 77 -78 4 -21
10 -109 13 -194 4 -85 8 -161 11 -168 2 -7 7 -91 10 -187 l7 -174 -24 -20
c-105 -87 -99 -79 -99 -136 0 -88 5 -87 206 28 226 131 313 184 342 210 25 24
29 73 8 102 -14 19 -16 19 -50 3 -41 -20 -64 -15 -70 16 -7 34 -25 328 -31
508 -6 160 0 208 24 208 4 0 23 -24 41 -52 42 -67 188 -284 246 -366 63 -90
61 -118 -11 -187 -51 -49 -55 -57 -55 -99 0 -24 5 -48 11 -52 15 -9 231 141
450 314 66 52 83 80 72 123 -6 23 -22 24 -49 4 -10 -8 -27 -15 -37 -15 -18 0
-72 54 -121 124 -17 23 -60 82 -97 131 -36 50 -76 106 -88 125 -28 46 -27 97
1 127 19 21 20 26 8 34 -8 5 -38 7 -66 4 l-50 -6 -31 48 c-58 92 -58 82 -7
180 26 48 53 97 60 108 19 26 18 32 -7 38 -15 4 -23 -1 -32 -21 -14 -35 -66
-84 -82 -79 -7 3 -10 17 -7 36 2 17 0 31 -4 31 -10 0 -34 -43 -121 -212 -31
-59 -59 -105 -64 -102 -5 3 -9 23 -9 44 0 56 -15 88 -45 96 -53 13 -58 84 -5
84 16 0 30 7 34 16 8 21 8 69 -1 77 -10 11 -33 -14 -33 -35 0 -14 -6 -19 -22
-16 -20 3 -23 9 -23 43 0 36 3 40 27 43 47 6 50 19 40 164 -12 152 -19 188
-41 204 -13 10 -13 14 -2 28 7 9 22 16 32 16 11 0 19 7 19 15 0 22 -22 18 -65
-11z"/>
<path d="M2150 7655 c-10 -12 -4 -23 40 -64 l53 -50 -7 -88 c-4 -48 -11 -158
-16 -243 -5 -85 -12 -196 -16 -247 -5 -64 -3 -101 5 -122 10 -24 10 -33 -2
-53 -8 -12 -17 -52 -21 -87 -5 -50 -11 -69 -32 -90 -23 -23 -27 -24 -35 -8
-13 23 -26 21 -34 -4 -6 -17 -12 -20 -38 -15 -64 13 -126 13 -131 -1 -3 -7
-12 -13 -21 -13 -22 0 -18 -27 7 -44 20 -14 23 -14 36 5 13 18 16 19 36 5 16
-10 37 -13 65 -9 51 7 86 -9 106 -50 19 -38 19 -37 -5 -37 -10 0 -24 9 -30 20
-6 11 -17 20 -25 20 -8 0 -18 7 -23 15 -7 13 -14 14 -35 6 -15 -6 -27 -15 -27
-20 0 -15 28 -33 62 -40 23 -5 34 -14 38 -31 4 -18 14 -26 33 -28 27 -3 67
-44 67 -68 0 -7 -9 -18 -20 -24 -16 -8 -20 -21 -20 -58 0 -27 5 -53 11 -59 8
-8 7 -17 -3 -32 -10 -17 -10 -25 0 -41 18 -29 15 -64 -8 -78 -16 -10 -20 -23
-20 -72 0 -59 6 -70 27 -49 7 7 18 -3 37 -35 15 -25 31 -46 35 -46 15 0 22 31
15 66 -6 30 -4 34 16 34 21 0 22 -3 15 -55 -3 -30 -4 -64 0 -75 9 -28 34 -25
46 7 7 20 13 23 21 15 9 -9 8 -18 -2 -37 -11 -21 -12 -30 -2 -46 14 -22 -3
-59 -26 -59 -8 0 -12 -5 -10 -12 3 -7 17 -12 33 -13 22 0 35 -9 53 -35 13 -19
29 -35 35 -35 17 0 9 57 -9 72 -14 10 -14 14 -1 35 9 13 17 36 19 53 2 23 -1
30 -17 33 -63 11 -58 122 6 127 23 2 25 7 36 101 7 54 13 137 12 184 0 47 3
109 7 139 l7 53 49 -6 c27 -4 59 -11 71 -15 12 -5 42 -14 67 -21 80 -22 101
-32 124 -64 37 -49 72 -126 97 -209 20 -71 24 -76 45 -71 19 5 24 1 29 -19 11
-41 2 -62 -27 -65 -24 -3 -26 -6 -27 -57 0 -30 4 -57 8 -59 5 -3 2 -26 -7 -52
-13 -39 -13 -52 -2 -82 11 -32 11 -37 -8 -51 -19 -14 -62 -99 -62 -121 0 -5
10 -10 23 -12 17 -2 23 -10 25 -40 5 -54 29 -65 150 -69 64 -3 105 0 112 7 21
21 61 154 76 256 32 212 -4 417 -100 573 -45 70 -134 165 -157 165 -19 0 9 27
51 51 72 41 152 159 189 282 45 150 48 391 6 552 -39 145 -124 261 -240 321
-76 40 -181 67 -265 68 -55 1 -76 -4 -134 -33 l-69 -34 -50 52 c-27 28 -55 51
-61 51 -6 0 -24 -9 -41 -20 -31 -20 -65 -27 -65 -12 0 30 -128 44 -150 17z
m613 -174 c136 -59 211 -357 163 -651 -19 -114 -42 -179 -100 -277 -46 -79
-49 -82 -69 -68 -12 8 -38 15 -59 15 -20 0 -40 5 -43 10 -3 6 -13 10 -22 10
-8 0 -39 7 -68 15 -48 14 -53 18 -58 51 -3 19 -2 60 3 92 5 31 14 147 20 257
15 270 30 476 36 497 7 25 83 68 121 68 17 0 52 -9 76 -19z"/>
<path d="M3890 7633 c0 -16 166 -113 192 -113 26 0 127 68 128 86 0 14 -47 21
-202 30 -74 4 -118 3 -118 -3z"/>
<path d="M8765 7633 c-99 -5 -145 -13 -145 -27 0 -18 102 -86 129 -86 25 0
191 97 191 111 0 9 -40 9 -175 2z"/>
<path d="M7310 7410 c-19 -4 -89 -13 -155 -19 -66 -7 -158 -17 -205 -22 -47
-5 -113 -9 -147 -9 -58 0 -65 -3 -110 -41 -67 -57 -83 -110 -67 -211 6 -33 10
-38 34 -38 33 0 43 -9 29 -27 -9 -10 -4 -21 24 -48 20 -19 38 -35 40 -35 2 0
17 12 34 28 16 15 52 48 80 75 29 26 58 47 65 47 14 0 58 -52 58 -68 0 -5 7
-15 15 -22 23 -19 57 14 48 47 -6 25 -5 25 47 22 67 -5 81 11 55 65 -17 35
-17 38 0 56 11 12 30 19 54 18 21 0 52 7 70 17 50 25 131 86 131 97 0 5 9 21
20 35 11 14 17 29 14 34 -6 11 -85 10 -134 -1z"/>
<path d="M3461 7356 c-6 -8 -10 -32 -9 -54 l3 -41 53 -7 c28 -3 52 -9 52 -13
0 -14 -25 -31 -46 -31 -17 0 -23 -7 -26 -26 -2 -15 -12 -32 -23 -38 -49 -27
-46 -46 18 -106 55 -52 81 -61 91 -32 3 9 13 28 21 42 17 30 5 46 -22 29 -26
-15 -53 -5 -53 19 0 24 48 112 61 112 5 0 14 -11 19 -25 7 -19 17 -25 38 -25
18 0 38 -10 52 -25 13 -14 28 -24 33 -22 8 2 16 73 20 182 2 38 1 40 -31 43
-37 4 -82 -20 -82 -44 0 -26 -27 -26 -68 0 -23 14 -42 35 -46 50 -7 29 -36 35
-55 12z"/>
<path d="M3568 6915 c-3 -3 -32 -7 -64 -9 -71 -4 -84 -19 -84 -94 0 -45 3 -53
16 -48 9 4 28 -4 46 -19 16 -14 33 -25 36 -26 11 -1 34 -6 65 -14 24 -6 27 -5
27 19 0 14 4 26 9 26 24 0 41 -14 41 -35 0 -21 17 -35 41 -35 5 0 9 15 8 33 0
17 4 65 8 106 11 93 5 101 -81 101 -34 0 -65 -2 -68 -5z"/>
<path d="M3914 6729 c-8 -14 -44 -708 -37 -726 8 -20 53 -28 67 -12 7 8 25 48
41 89 73 195 164 340 243 391 51 32 83 36 135 14 86 -36 128 -107 146 -247 12
-97 7 -344 -7 -361 -9 -10 -29 -11 -89 -5 -220 22 -502 -120 -590 -298 -42
-83 -51 -115 -63 -236 -10 -90 -9 -120 5 -193 9 -48 14 -89 12 -92 -3 -2 -13
0 -24 6 -10 5 -34 17 -54 26 -61 27 -65 42 -60 244 3 92 5 104 22 108 31 9 39
60 18 118 -25 65 -25 185 -1 238 11 24 31 46 57 60 22 13 41 30 43 39 4 19
-51 84 -79 93 -17 6 -19 16 -19 117 0 61 -5 128 -11 149 -10 32 -9 45 8 86 26
61 38 212 18 219 -7 3 -23 0 -35 -6 -18 -9 -28 -9 -47 1 -19 10 -31 10 -57 1
-18 -7 -40 -12 -48 -12 -28 0 -78 -50 -78 -76 0 -14 -7 -40 -15 -60 -17 -42
-13 -55 25 -78 17 -9 30 -23 30 -30 0 -17 28 -29 43 -19 12 7 82 5 110 -3 12
-4 17 -13 15 -27 -2 -17 -9 -21 -28 -20 -14 1 -58 3 -98 4 -68 2 -76 0 -100
-25 -22 -21 -28 -38 -32 -89 l-5 -62 -42 -6 c-78 -10 -94 -46 -42 -95 53 -50
68 -99 65 -212 -2 -55 -7 -105 -11 -112 -4 -6 -4 -26 -1 -43 4 -20 0 -43 -9
-61 -11 -20 -12 -33 -5 -40 17 -17 11 -62 -10 -81 -18 -16 -18 -19 -3 -30 13
-10 15 -23 10 -68 -3 -30 -11 -65 -17 -77 -11 -20 -18 -22 -60 -17 -64 8 -72
-3 -68 -94 l3 -74 75 -25 c50 -17 76 -31 78 -43 2 -9 -1 -17 -7 -17 -14 0 -14
-47 -1 -55 13 -8 41 -74 38 -89 -1 -6 4 -22 11 -35 8 -14 11 -41 8 -70 -3 -25
-7 -134 -10 -241 -2 -107 -8 -228 -12 -267 -9 -88 3 -113 40 -89 21 14 24 14
29 0 3 -9 6 -25 6 -35 0 -11 5 -17 10 -14 6 3 10 27 10 52 0 26 4 60 9 77 9
29 27 192 36 336 17 244 27 344 36 361 12 23 35 25 43 2 6 -15 8 -14 20 2 13
18 14 18 101 -4 55 -14 65 -2 65 74 0 34 3 65 7 68 3 4 25 -21 47 -55 23 -34
49 -73 59 -87 12 -18 16 -37 13 -60 -5 -29 -2 -34 24 -44 33 -13 36 -23 16
-50 -14 -18 -14 -17 -21 2 -7 24 -18 27 -34 7 -8 -10 -8 -21 -1 -40 6 -18 7
-34 0 -45 -5 -10 -9 -38 -9 -62 1 -24 -2 -56 -6 -71 -6 -22 -4 -28 8 -28 9 0
21 9 27 20 6 11 17 20 25 20 17 0 20 -26 5 -35 -15 -9 -12 -25 5 -25 16 0 20
-16 6 -24 -5 -3 -14 1 -21 9 -7 8 -16 15 -21 15 -17 0 -9 -40 11 -60 24 -24
25 -30 6 -30 -16 0 -39 -81 -30 -105 7 -18 31 -14 26 5 -5 23 10 71 21 67 5
-1 12 -16 14 -33 4 -35 10 -109 12 -146 0 -16 5 -28 10 -28 5 0 9 49 9 110 -1
61 2 113 5 117 4 3 14 0 23 -8 14 -11 17 -10 25 4 14 24 29 21 29 -7 0 -13 6
-29 14 -35 8 -6 17 -31 20 -54 10 -64 18 -72 48 -43 22 20 26 30 21 62 -4 34
-1 43 26 68 26 25 33 27 46 16 20 -16 29 -8 20 19 -7 24 -26 27 -55 9 -34 -21
-35 1 -2 32 18 16 32 36 32 44 0 9 9 16 20 16 11 0 20 -5 20 -12 0 -6 7 -20
17 -30 16 -17 17 -17 33 9 22 38 7 111 -24 115 -27 4 -33 43 -10 69 13 15 14
21 4 34 -9 10 -9 22 -2 43 6 19 6 35 -1 47 -7 14 -6 21 9 32 10 7 25 13 35 13
16 0 54 -44 54 -65 1 -5 6 -20 13 -32 7 -12 9 -35 6 -52 -5 -25 -2 -36 20 -56
28 -26 27 -43 -5 -63 -18 -12 -21 -11 -26 7 -6 24 -23 28 -23 7 0 -8 12 -23
27 -34 23 -17 25 -22 14 -36 -14 -17 -11 -52 10 -104 12 -29 12 -37 -4 -63 -9
-17 -17 -46 -17 -64 0 -30 3 -34 27 -32 19 1 28 -3 31 -15 2 -13 -3 -18 -17
-18 -25 0 -28 -25 -7 -64 16 -31 6 -103 -15 -117 -8 -5 -29 -9 -47 -9 -29 0
-32 -3 -27 -20 4 -11 -1 -32 -11 -50 -19 -30 -13 -53 8 -32 17 17 28 15 28 -6
0 -10 11 -29 24 -41 26 -25 39 -85 24 -114 -6 -11 -6 -23 0 -30 16 -19 27 -95
24 -166 -2 -41 -3 -43 -27 -37 -38 10 -44 -20 -11 -50 30 -29 30 -27 14 -71
-12 -34 -22 -41 -33 -23 -11 17 -105 62 -99 47 7 -19 -22 -41 -38 -30 -7 4
-26 8 -43 8 -27 0 -30 3 -28 29 1 16 5 37 9 45 4 9 9 59 10 111 2 52 6 116 10
143 4 31 1 60 -9 85 -8 20 -12 42 -10 49 2 6 -1 14 -6 18 -6 3 -11 26 -11 51
0 37 3 44 17 42 24 -4 29 29 8 52 -9 10 -15 31 -14 47 4 50 -1 63 -26 69 -13
3 -27 14 -30 24 -5 16 -32 30 -62 30 -21 0 -15 -14 9 -25 30 -13 53 -91 38
-129 -9 -25 -13 -27 -62 -24 l-53 3 -3 48 c-4 65 -27 63 -36 -3 l-7 -50 -182
-2 -182 -3 -3 -44 c-5 -67 4 -88 48 -113 48 -28 69 -72 145 -299 52 -154 53
-159 32 -159 -35 0 -84 -35 -91 -65 -9 -35 -4 -39 67 -54 32 -7 68 -22 81 -34
16 -15 46 -88 95 -232 40 -115 90 -259 112 -320 21 -60 44 -127 50 -148 13
-48 47 -70 100 -65 l41 4 -7 -137 c-4 -91 -3 -139 4 -143 20 -13 29 32 35 176
7 177 17 250 57 388 30 103 48 146 35 83 -6 -26 -4 -34 13 -43 26 -13 29 -68
5 -77 -18 -7 -17 -64 2 -104 10 -21 11 -72 3 -245 -10 -226 -8 -264 15 -264
10 0 15 27 20 108 24 408 30 466 56 482 7 4 10 34 8 81 -2 61 -6 74 -19 71
-14 -2 -17 17 -23 131 -6 111 -4 142 10 183 24 72 42 98 82 119 46 25 52 55
18 83 -15 11 -26 25 -26 31 0 6 -6 20 -12 31 -10 15 -10 22 0 32 9 9 12 9 12
0 0 -7 5 -12 10 -12 15 0 12 96 -6 181 -19 87 -13 155 13 145 13 -5 14 -1 8
21 -4 16 -9 64 -12 108 -3 51 -10 86 -20 97 -20 23 -36 12 -29 -18 5 -18 2
-24 -9 -24 -12 0 -15 6 -10 19 3 11 0 29 -6 39 -18 28 0 83 31 99 31 15 58 75
59 130 1 23 5 45 11 48 5 3 8 28 6 55 -4 47 -2 50 20 50 13 0 28 9 34 19 13
26 13 108 -1 117 -6 3 -8 17 -4 32 5 20 1 30 -17 44 -22 18 -22 19 -4 32 10 8
15 20 11 25 -11 18 23 24 40 7 23 -23 35 -20 35 8 0 14 6 31 13 38 7 7 16 20
19 29 5 12 18 16 54 15 50 -1 65 -15 39 -36 -20 -17 -19 -34 3 -25 14 5 15 4
5 -6 -7 -7 -13 -20 -13 -28 0 -9 -9 -27 -20 -41 -11 -14 -20 -37 -20 -52 0
-15 -5 -30 -10 -33 -6 -4 -8 -11 -4 -16 4 -6 11 -6 20 2 21 17 37 6 62 -43 27
-54 27 -67 3 -137 -18 -51 -18 -81 -2 -81 12 0 31 48 31 76 0 24 2 22 33 -18
18 -25 52 -53 80 -67 42 -21 48 -27 42 -48 -8 -34 29 -116 52 -111 22 4 38 74
22 94 -12 15 -4 64 10 64 5 0 26 16 46 34 30 29 41 33 60 26 18 -7 25 -5 29 6
8 22 8 24 -8 24 -23 0 -26 14 -11 56 8 21 14 60 15 86 0 26 5 50 10 53 14 9
13 26 -2 23 -6 -2 -16 11 -21 29 -5 18 -32 60 -59 93 -39 49 -47 64 -37 76 6
7 15 11 20 8 5 -3 12 1 15 10 3 8 22 25 43 39 l37 25 15 -22 c7 -11 19 -33 26
-48 9 -21 19 -28 41 -28 34 0 88 -51 79 -74 -16 -41 101 -88 223 -90 77 -1 85
1 88 19 7 35 21 40 43 17 20 -22 21 -22 50 -5 23 14 29 24 26 41 -3 13 0 39 6
57 10 34 11 34 96 51 31 6 37 14 73 93 70 150 108 274 108 348 0 45 -14 63
-50 63 -23 0 -27 -6 -39 -57 -20 -86 -81 -220 -133 -294 -43 -60 -52 -67 -112
-87 -58 -20 -71 -21 -108 -11 -53 16 -124 62 -139 92 -6 12 -25 36 -41 53 -22
23 -28 38 -23 53 3 11 -3 67 -14 123 -30 149 -41 310 -26 372 16 69 50 133 75
141 11 3 25 16 31 27 14 27 -13 65 -67 93 -36 19 -39 23 -36 60 11 154 55 352
96 432 29 57 59 87 106 106 58 24 97 11 160 -52 67 -68 107 -142 160 -296 49
-140 69 -185 92 -199 40 -25 43 -3 46 364 2 351 -2 400 -33 400 -20 0 -70 -54
-86 -92 -15 -36 -33 -35 -89 2 -111 75 -217 98 -297 65 -19 -8 -45 -15 -56
-15 -62 0 -231 -163 -286 -276 -86 -178 -116 -266 -138 -409 -8 -46 -11 -50
-42 -56 -43 -9 -85 -40 -89 -67 -2 -13 11 -35 37 -63 23 -22 45 -58 50 -78 8
-31 27 -185 46 -389 6 -58 57 -226 86 -285 18 -35 18 -39 3 -62 -18 -28 -34
-24 -34 9 0 15 -10 27 -33 38 -31 15 -34 15 -62 -8 -36 -28 -60 -31 -70 -6 -6
16 -7 16 -21 -2 -18 -26 -18 -9 2 45 41 114 71 321 53 381 -20 72 -78 63 -86
-13 -2 -24 -9 -69 -14 -99 -5 -30 -11 -76 -14 -103 -7 -76 -44 -126 -93 -127
-36 0 -65 75 -58 148 3 32 6 68 6 82 -3 138 3 344 11 378 14 65 46 120 79 137
17 9 30 24 30 34 0 26 -38 71 -73 86 l-29 12 -2 199 c-3 218 -14 281 -66 384
-63 125 -182 214 -332 246 -116 25 -190 12 -301 -52 -59 -33 -73 -31 -98 19
-38 75 -84 109 -105 76z m573 -1061 c12 -10 14 -27 9 -83 -22 -234 -29 -270
-54 -260 -8 3 -19 0 -24 -7 -14 -24 -8 -38 17 -38 16 0 25 -6 25 -15 0 -17
-25 -71 -44 -94 -6 -8 -16 -30 -21 -50 -8 -29 -16 -37 -38 -39 -21 -3 -29 -10
-34 -32 -7 -39 -33 -47 -54 -18 -15 19 -15 25 -3 42 19 28 18 44 -7 51 -24 8
-22 38 4 43 12 3 20 -4 24 -17 4 -15 13 -21 34 -21 35 0 36 11 7 53 -13 18
-24 34 -25 36 -1 1 -12 -4 -25 -13 -26 -19 -65 -21 -70 -4 -2 6 -12 9 -21 5
-20 -7 -23 -47 -5 -65 10 -10 10 -15 -2 -22 -21 -14 -50 -12 -54 3 -2 6 -9 30
-16 52 -7 22 -14 65 -16 97 -2 50 0 57 19 62 20 5 20 6 3 25 -15 16 -16 25 -6
63 15 56 71 156 107 190 16 15 51 39 78 53 43 22 59 25 114 20 35 -2 70 -10
78 -17z m-334 -1857 c6 -13 11 -42 11 -65 -2 -95 -13 -268 -17 -272 -2 -3 -25
58 -51 134 -45 136 -55 193 -37 220 11 18 75 32 79 18 2 -6 9 -22 15 -35z"/>
<path d="M8940 6679 c-27 -17 -38 -19 -52 -10 -26 16 -39 14 -65 -11 -21 -19
-26 -20 -48 -8 -30 16 -72 5 -89 -24 -9 -14 -8 -20 3 -24 8 -3 26 -16 39 -29
27 -27 27 -26 3 -198 -62 -437 -72 -518 -66 -523 3 -3 14 3 24 12 22 20 41 14
41 -13 0 -19 -39 -61 -57 -61 -7 0 -21 -12 -33 -27 -19 -24 -21 -36 -16 -80 4
-34 -4 -117 -23 -245 -16 -106 -34 -231 -41 -278 -18 -134 -25 -154 -67 -181
-32 -20 -38 -30 -41 -65 -4 -49 14 -69 49 -55 13 5 42 14 64 19 179 46 179 46
183 100 3 44 2 45 -49 56 -15 3 -29 13 -33 21 -7 20 51 486 63 498 5 5 17 4
29 -2 11 -6 31 -11 44 -11 13 0 29 -5 35 -11 13 -13 86 7 126 35 34 25 43 17
62 -60 8 -32 19 -68 25 -79 5 -11 25 -65 45 -120 20 -55 41 -116 48 -135 8
-23 21 -36 37 -40 14 -4 24 -12 23 -18 -2 -7 -4 -18 -5 -24 -2 -8 6 -12 20
-11 24 3 28 -8 11 -35 -9 -14 -3 -39 24 -117 40 -115 67 -175 79 -175 5 0 17
5 27 12 15 9 24 7 46 -10 52 -41 79 -21 44 30 -62 91 -61 89 -48 104 9 11 8
18 -5 32 -9 10 -16 28 -16 39 0 12 -9 42 -20 68 -21 49 -26 101 -11 123 8 13
-1 87 -12 99 -4 3 -13 0 -21 -6 -16 -13 -36 -7 -36 11 0 5 8 21 19 34 20 25
21 15 -19 159 -5 17 -16 57 -25 90 -9 33 -27 98 -41 145 -29 103 -31 149 -4
183 11 14 20 30 20 36 0 14 -35 32 -52 26 -7 -3 -18 -1 -24 3 -10 6 -45 126
-109 367 -8 28 -20 75 -29 105 -56 208 -55 192 -16 232 35 35 37 44 11 58 -27
14 -31 13 -71 -11z m-60 -630 c46 -178 47 -190 20 -214 -27 -24 -25 -39 5 -53
14 -6 33 -28 42 -47 16 -33 16 -39 2 -63 -8 -15 -27 -31 -43 -37 -23 -8 -36
-5 -74 16 -25 14 -55 38 -66 52 -18 25 -19 32 -7 114 6 48 16 124 22 168 11
90 29 203 35 224 9 31 26 -10 64 -160z"/>
<path d="M2515 5450 c-9 -14 4 -70 16 -70 5 0 9 7 9 16 0 10 7 14 23 12 17 -2
22 -10 22 -33 0 -24 -5 -31 -23 -33 -21 -3 -19 -7 25 -49 107 -105 264 -123
178 -21 -22 26 -26 39 -22 70 6 45 -6 57 -27 27 -12 -18 -18 -20 -30 -10 -8 7
-18 22 -21 32 -7 20 -96 69 -126 69 -10 0 -21 -5 -24 -10z"/>
<path d="M2992 5309 c-34 -9 -66 -19 -69 -23 -3 -3 1 -21 10 -38 9 -18 18 -41
21 -50 7 -22 33 -13 41 13 5 14 12 18 30 13 17 -4 31 2 54 25 38 37 39 54 4
67 -21 7 -44 6 -91 -7z"/>
<path d="M10295 5287 c-27 -20 -11 -34 39 -35 134 -3 273 -151 312 -331 26
-123 16 -291 -25 -419 -34 -105 -106 -237 -178 -327 -57 -70 -153 -141 -204
-150 -20 -3 -48 -13 -63 -20 -18 -10 -33 -11 -44 -5 -25 14 -136 50 -153 50
-8 0 -55 40 -104 90 -50 49 -97 90 -106 90 -22 0 -49 32 -49 58 0 27 -17 37
-35 22 -15 -13 -20 -4 -16 28 3 16 -15 57 -61 147 -42 82 -49 90 -60 71 -13
-23 -48 -20 -48 3 0 11 -4 22 -9 26 -9 5 -41 62 -41 72 0 1 11 3 24 3 31 0 40
14 26 40 -10 19 -12 19 -37 2 -15 -9 -29 -15 -30 -13 -7 7 -62 -21 -67 -35
-12 -32 51 -134 83 -134 29 0 46 -29 45 -77 -1 -38 2 -43 22 -43 13 0 31 -11
42 -27 17 -23 22 -25 36 -14 27 23 48 6 44 -36 -3 -35 -1 -39 31 -49 18 -6 37
-18 42 -27 12 -20 2 -62 -17 -78 -23 -19 -16 -34 22 -53 33 -15 36 -20 31 -50
-4 -27 0 -37 26 -63 42 -40 131 -101 177 -122 l37 -17 -27 -48 c-31 -53 -34
-52 -60 27 -8 26 -25 46 -51 64 -21 14 -39 29 -39 33 0 5 -18 6 -40 3 -36 -5
-40 -3 -40 16 0 12 -6 24 -14 27 -8 3 -16 14 -19 25 -4 15 -14 19 -50 19 -55
0 -107 -17 -107 -36 0 -19 -45 -64 -64 -64 -8 0 -16 8 -18 17 -2 14 -18 3 -65
-45 -66 -67 -78 -74 -68 -41 7 20 4 21 -21 15 -58 -13 -59 -13 -57 21 3 33 -2
37 -59 47 -14 2 -70 -9 -123 -26 -53 -16 -99 -27 -101 -25 -3 3 -2 17 2 32 6
26 9 27 51 22 37 -4 48 -1 68 19 13 13 33 24 45 24 11 0 20 5 20 10 0 11 -188
13 -260 2 l-45 -7 0 -70 0 -70 45 -8 c25 -5 55 -10 67 -13 44 -9 65 -57 73
-170 3 -57 4 -143 2 -193 l-4 -89 -31 -6 c-17 -4 -41 -16 -53 -27 l-22 -21
-11 21 c-14 26 -61 51 -96 51 -23 0 -25 4 -25 41 0 48 -56 221 -98 306 -17 32
-51 84 -77 116 -55 67 -184 157 -223 157 -15 0 -45 -14 -66 -30 -43 -32 -90
-39 -120 -17 -14 10 -15 17 -7 40 6 16 11 31 11 34 0 15 -109 -9 -168 -37 -96
-45 -217 -169 -267 -275 -39 -82 -90 -235 -100 -296 -5 -33 -9 -37 -42 -42
-37 -6 -83 -41 -83 -64 0 -7 15 -19 34 -27 51 -21 67 -54 87 -180 37 -227 109
-385 235 -513 99 -101 174 -136 304 -141 152 -6 261 39 373 157 116 121 173
244 208 450 10 58 16 108 13 110 -2 2 -12 -3 -22 -12 -23 -21 -52 -22 -52 -3
0 25 52 78 71 73 12 -3 24 4 34 19 19 30 77 56 87 40 4 -6 15 -11 25 -12 10
-1 25 -2 33 -3 35 -3 44 -66 47 -354 2 -179 0 -284 -7 -297 -8 -15 -23 -20
-72 -22 l-62 -3 -9 -38 c-5 -21 -6 -53 -3 -72 l7 -35 354 0 c195 0 355 1 355
3 0 1 3 25 6 53 9 78 -2 90 -88 97 -40 4 -83 10 -95 13 -40 11 -46 54 -51 320
l-4 250 27 32 c22 27 24 34 13 51 -16 26 -1 42 17 18 15 -21 55 -15 55 7 0 20
-44 55 -78 62 -35 7 -35 4 -32 128 2 77 10 99 77 195 25 36 49 75 54 88 5 13
12 22 16 21 5 -2 25 7 45 20 40 25 108 41 108 25 0 -5 -12 -20 -26 -34 -36
-33 -68 -97 -56 -112 20 -26 20 -55 0 -60 -17 -5 -19 -11 -13 -39 10 -45 44
-82 62 -67 10 9 13 7 13 -10 0 -12 -5 -31 -11 -43 -9 -16 -6 -24 12 -44 53
-57 147 -54 204 6 27 28 28 33 18 61 -10 26 -10 30 5 27 13 -2 18 -17 22 -63
5 -57 6 -60 35 -65 28 -5 30 -8 27 -49 -2 -34 2 -49 19 -67 17 -18 20 -31 16
-58 -5 -33 -2 -39 45 -81 51 -46 78 -56 78 -30 0 26 18 17 46 -22 21 -31 25
-33 20 -13 -7 25 -7 25 9 -2 12 -22 33 -33 110 -57 192 -59 263 -140 235 -268
-21 -91 -76 -133 -175 -134 -60 -1 -60 -1 -44 -31 9 -17 8 -19 -8 -16 -10 2
-18 12 -18 23 0 14 -16 29 -50 48 -61 34 -86 57 -139 126 -54 71 -51 65 -86
152 -17 42 -40 86 -51 97 -24 26 -65 29 -77 5 -5 -10 -10 -109 -11 -220 -2
-168 0 -203 12 -203 8 0 22 -9 32 -20 24 -27 8 -47 -25 -30 -20 11 -21 10 -18
-37 3 -48 3 -48 41 -51 34 -3 42 1 81 43 l42 47 39 -16 c28 -12 41 -13 51 -5
8 6 15 9 15 5 1 -3 2 -9 3 -13 7 -39 126 -68 236 -58 97 8 168 42 241 115 100
99 139 209 139 390 0 62 -6 130 -15 163 -13 50 -13 62 -1 91 14 34 59 76 82
76 24 0 15 27 -17 54 -40 34 -97 35 -135 3 l-26 -23 -103 52 c-56 28 -155 68
-220 90 -104 34 -124 44 -167 86 -53 52 -71 58 -87 31 -12 -22 -28 -9 -33 27
-4 30 -16 50 -28 50 -6 0 -5 -11 0 -26 14 -35 13 -35 -15 -28 -21 5 -27 1 -42
-30 -12 -26 -19 -33 -24 -23 -11 19 0 57 16 57 14 0 10 35 -7 56 -5 7 -2 16 7
24 8 7 15 24 15 37 0 34 22 24 32 -15 5 -18 13 -32 19 -32 6 0 8 7 5 16 -3 9
-8 41 -11 72 -4 56 -4 56 5 12 5 -25 20 -66 33 -92 20 -38 26 -43 30 -28 3 11
12 20 20 20 11 0 17 17 22 60 5 40 11 60 20 60 16 0 80 35 109 59 14 12 20 13
23 4 3 -7 13 -13 23 -13 9 0 37 -7 60 -15 39 -14 45 -14 61 1 21 19 37 1 18
-22 -11 -13 -8 -19 18 -40 32 -25 50 -52 147 -216 51 -89 60 -98 86 -98 23 0
31 5 34 23 8 40 4 482 -5 505 -15 38 -52 28 -101 -28 l-44 -50 -83 38 -82 38
22 19 c46 42 172 251 209 350 34 88 44 120 61 200 76 362 -87 724 -327 725
-27 0 -58 -6 -69 -13z m-474 -1429 c17 3 17 0 -4 -50 -13 -29 -22 -60 -20 -70
2 -9 -1 -19 -6 -23 -6 -3 -11 -1 -11 5 0 7 -8 9 -20 5 -11 -4 -20 -2 -20 4 0
6 -4 11 -9 11 -4 0 -6 -12 -3 -27 4 -24 3 -25 -19 -18 -13 4 -42 7 -63 7 -36
-2 -38 0 -24 16 8 9 22 34 32 54 9 21 22 37 29 35 7 -1 21 17 32 40 24 49 43
58 69 29 10 -12 27 -20 37 -18z m-1510 9 c18 -12 44 -38 56 -57 42 -61 93
-261 93 -361 0 -44 -2 -47 -30 -53 -31 -6 -80 -46 -80 -65 0 -6 15 -17 33 -25
69 -28 88 -88 76 -242 -21 -254 -90 -412 -190 -432 -60 -12 -97 -3 -134 34
-81 81 -122 230 -127 459 -2 106 11 138 73 173 21 12 39 26 39 31 0 22 -44 61
-75 67 -34 6 -35 8 -35 53 l-1 46 -29 -35 -29 -35 -1 38 c0 27 7 45 25 62 13
14 28 25 33 25 5 0 12 19 16 41 4 23 19 78 33 123 21 63 37 91 73 128 43 45
50 48 97 48 36 0 60 -7 84 -23z"/>
<path d="M2900 4715 l-44 -33 -29 22 c-32 24 -108 27 -146 6 -33 -17 -23 -50
19 -64 21 -7 41 -23 53 -43 l18 -32 -100 -428 c-56 -235 -104 -438 -107 -450
-9 -31 7 -29 41 7 32 33 47 37 65 15 9 -11 9 -22 0 -50 -6 -19 -16 -35 -21
-35 -5 0 -10 0 -11 0 -2 0 -30 -9 -63 -18 -55 -17 -60 -21 -70 -56 -6 -21 -8
-57 -5 -80 4 -30 -7 -90 -42 -231 -26 -104 -64 -262 -84 -350 -20 -88 -44
-179 -54 -201 -16 -37 -23 -43 -68 -54 -28 -6 -56 -18 -62 -25 -6 -7 -10 -39
-8 -72 l3 -58 144 -3 c109 -2 146 1 153 10 6 10 8 10 8 1 0 -9 19 -13 59 -13
87 0 91 3 91 65 0 65 -7 85 -30 85 -34 0 -77 21 -87 43 -8 18 4 90 57 326 37
166 70 304 73 307 2 3 28 -11 58 -31 29 -19 57 -35 62 -35 5 0 18 10 29 23
l19 22 -6 -28 c-5 -23 -1 -29 20 -37 61 -23 171 -5 216 36 15 13 17 13 23 -10
3 -14 7 -28 7 -31 7 -54 80 -295 167 -560 26 -78 28 -80 59 -80 44 0 48 -9 24
-48 -11 -19 -21 -37 -21 -41 0 -3 21 -6 46 -6 38 0 45 -3 42 -17 -2 -12 -11
-17 -26 -15 -25 4 -28 -11 -11 -55 6 -15 16 -50 24 -78 36 -135 67 -230 79
-244 8 -9 16 -29 18 -46 2 -25 8 -31 32 -33 19 -2 32 2 38 12 8 14 15 10 44
-25 19 -22 34 -45 34 -51 0 -6 7 -8 15 -4 8 3 20 -3 28 -14 9 -13 20 -17 36
-13 27 7 24 34 -4 47 -14 6 -27 29 -38 68 -10 32 -26 67 -37 78 -21 21 -26 45
-11 55 6 3 15 -4 21 -16 17 -31 21 -18 8 24 -7 24 -16 36 -24 33 -18 -7 -28
12 -15 28 8 10 6 31 -9 82 -32 106 -30 101 -40 84 -5 -8 -12 -12 -15 -8 -4 3
-1 15 6 26 9 15 9 27 0 52 -10 30 -9 36 13 59 22 24 23 31 16 88 -4 33 -11 66
-14 72 -12 19 -35 12 -53 -15 l-17 -27 -12 34 c-18 48 -17 59 4 59 11 0 26 8
36 19 16 17 12 38 -65 367 -89 387 -90 396 -29 448 36 30 37 39 8 66 -15 13
-35 20 -63 20 l-42 0 -52 228 c-29 126 -51 238 -49 249 1 11 -3 27 -9 35 -7 8
-33 104 -58 214 -43 187 -45 201 -31 231 9 18 30 39 51 49 47 22 52 32 26 58
-31 30 -114 30 -157 -1 l-31 -22 -24 25 c-41 44 -51 45 -99 9z m24 -817 c32
-144 54 -264 50 -265 -5 -2 -24 -12 -41 -23 -33 -20 -46 -60 -19 -60 40 0 100
-81 98 -133 -3 -113 -172 -82 -279 51 l-33 40 40 179 c59 261 112 473 119 473
4 0 33 -118 65 -262z"/>
<path d="M6994 4100 c4 -23 2 -30 -10 -30 -12 0 -15 7 -12 25 5 22 2 25 -21
25 -14 0 -77 -18 -140 -39 -63 -22 -120 -37 -127 -34 -7 2 -15 16 -18 29 -6
22 -11 25 -44 22 l-37 -3 -7 -225 c-3 -124 -9 -249 -13 -277 -7 -50 -6 -53 20
-65 40 -18 55 -2 95 103 43 110 102 230 139 278 26 34 96 91 113 91 4 0 8 -18
8 -40 0 -29 4 -40 15 -40 8 0 15 -4 15 -10 0 -5 -7 -10 -15 -10 -13 0 -15 -38
-15 -285 l0 -284 -32 -9 c-17 -4 -37 -17 -45 -29 -13 -19 -12 -23 16 -39 59
-35 62 -56 58 -337 -5 -260 -11 -326 -31 -328 -65 -4 -76 -14 -76 -69 l0 -50
54 0 55 0 -6 -37 c-4 -21 -13 -43 -22 -50 -9 -7 -11 -13 -5 -13 18 0 46 -104
39 -143 -4 -19 -2 -50 3 -69 6 -21 6 -41 1 -49 -7 -12 -9 -12 -9 0 0 8 -3 12
-6 8 -3 -3 -1 -14 5 -24 10 -17 11 -17 17 5 4 15 10 19 18 13 8 -7 11 5 12 42
1 29 3 70 4 92 3 35 3 37 7 10 3 -16 9 -32 13 -35 5 -3 9 -32 11 -65 2 -47 -1
-59 -12 -57 -10 2 -10 -1 2 -10 22 -18 30 -66 12 -76 -18 -11 -20 -97 -3 -148
7 -20 10 -58 8 -85 -3 -27 -1 -49 3 -49 5 0 10 -21 10 -47 l2 -48 7 40 7 40 3
-45 c1 -25 4 -37 7 -27 6 22 23 12 23 -13 0 -13 5 -17 15 -14 12 5 15 -4 16
-47 1 -70 6 -54 14 45 4 50 10 74 15 65 16 -25 23 0 26 98 2 54 5 140 7 191 2
55 0 95 -6 99 -6 4 -8 0 -4 -10 4 -10 2 -17 -5 -17 -6 0 -8 11 -4 31 3 17 6
35 6 38 0 4 10 18 22 31 12 13 24 33 25 44 5 32 13 32 14 0 0 -16 3 -23 6 -16
2 6 9 10 14 6 5 -3 9 0 9 5 0 6 -5 11 -12 11 -9 0 -9 3 0 12 7 7 8 17 2 28 -5
9 -5 32 -1 53 5 20 6 38 3 41 -3 3 -6 30 -6 60 -1 30 -5 58 -9 63 -5 4 8 13
30 19 36 10 38 12 37 53 -1 49 -10 60 -49 63 -56 3 -55 -3 -55 314 0 302 4
338 41 349 9 3 23 13 30 22 11 13 10 18 -10 34 -13 11 -32 19 -43 19 -19 0
-19 9 -16 354 2 195 7 358 11 362 12 13 28 -18 16 -32 -7 -8 0 -18 25 -33 41
-26 94 -95 140 -183 18 -35 38 -62 45 -60 13 4 15 -14 2 -22 -10 -6 32 -124
57 -163 8 -13 24 -23 37 -23 36 0 48 23 41 77 -4 27 -9 78 -12 115 -5 60 -8
67 -30 72 -29 8 -32 32 -5 39 13 3 21 -1 24 -12 2 -9 4 41 5 112 0 102 -3 127
-14 127 -8 0 -14 7 -14 15 0 8 5 15 10 15 6 0 10 5 10 10 0 6 -11 10 -24 10
-29 0 -72 -36 -77 -64 -6 -30 -27 -31 -35 -2 -6 26 -34 37 -34 14 0 -7 -15 5
-34 25 -33 36 -68 48 -81 27 -9 -15 -35 -12 -35 4 0 20 -32 26 -144 26 l-98 0
6 -30z"/>
<path d="M5440 3735 l0 -315 34 0 c40 0 47 7 75 85 60 160 156 309 227 351 70
41 179 31 226 -22 30 -34 56 -107 67 -187 13 -92 14 -217 3 -235 -6 -8 -40
-15 -95 -18 -178 -9 -404 -117 -513 -244 -83 -96 -108 -178 -102 -334 5 -138
27 -195 100 -261 28 -25 54 -45 59 -45 5 0 6 -18 3 -40 -5 -32 -4 -40 9 -40 9
0 20 7 25 16 8 14 10 13 15 -5 3 -12 -1 -28 -10 -36 -13 -13 -13 -17 1 -31 23
-23 20 -30 -4 -9 -11 10 -20 26 -20 37 0 23 -11 23 -33 -2 -16 -19 -14 -24 6
-21 5 1 6 -3 2 -9 -3 -5 -1 -19 5 -30 9 -16 8 -19 -6 -13 -14 5 -16 1 -11 -28
3 -19 8 -44 12 -56 5 -15 3 -23 -4 -23 -6 0 -11 8 -11 17 0 9 -3 14 -6 10 -3
-3 -3 -19 1 -35 5 -23 10 -29 26 -25 10 3 19 11 19 18 0 6 9 20 20 30 19 18
20 17 20 -1 0 -11 -5 -25 -12 -32 -9 -9 -8 -12 5 -12 9 0 17 -7 17 -15 0 -18
-27 -20 -32 -3 -3 7 -12 9 -22 5 -15 -6 -16 -9 -3 -27 14 -20 10 -79 -8 -125
-5 -12 -5 -17 1 -12 5 5 14 -11 21 -40 l11 -48 1 41 c1 22 6 45 13 52 7 7 8
12 3 12 -6 0 -11 26 -12 57 -3 51 -1 55 11 38 19 -28 41 -186 38 -273 -2 -58
0 -74 13 -78 9 -4 18 -4 21 -1 10 10 6 100 -8 163 -8 33 -11 73 -7 87 4 15 4
27 0 27 -4 0 -7 42 -8 93 0 50 -4 104 -8 120 -6 22 -4 27 10 27 13 0 16 -6 13
-25 -3 -14 -1 -28 4 -31 10 -6 8 -86 -2 -94 -4 -3 4 -20 17 -39 l23 -34 0 42
c0 26 4 40 10 36 6 -3 10 -15 10 -26 0 -10 6 -19 13 -19 17 0 36 -76 41 -167
2 -40 7 -77 11 -83 3 -5 1 -10 -4 -10 -6 0 -11 -5 -11 -11 0 -6 6 -9 14 -6 11
4 16 -4 18 -31 2 -29 7 -36 21 -34 9 2 17 -2 17 -8 0 -6 -4 -8 -10 -5 -6 4
-10 -6 -10 -24 0 -16 5 -31 12 -33 17 -6 23 -178 6 -178 -10 0 -10 -2 1 -9 11
-7 11 -15 3 -40 -7 -18 -7 -29 -2 -26 6 4 10 -13 9 -42 -1 -26 -3 -40 -6 -31
-5 19 -23 25 -23 9 0 -5 4 -22 10 -36 16 -43 24 -98 28 -212 2 -32 6 -43 18
-43 11 0 15 -6 11 -19 -2 -11 -1 -55 3 -99 9 -83 4 -126 -11 -116 -11 7 -11
-47 0 -64 6 -11 12 -11 27 -2 17 10 19 23 16 123 -2 63 2 130 9 153 9 34 8 47
-5 70 -8 16 -15 22 -16 14 0 -8 -7 -2 -16 15 -18 35 -31 170 -16 178 5 4 7 27
4 53 -2 25 -1 49 5 53 5 3 7 35 3 76 -4 39 -3 80 2 93 13 38 9 71 -12 92 -11
11 -17 26 -14 34 3 8 1 17 -5 21 -14 8 -14 75 -1 75 6 0 10 -5 10 -11 0 -5 5
-7 10 -4 16 10 12 42 -6 49 -12 5 -15 16 -12 40 2 19 1 33 -3 30 -4 -2 -10 3
-13 12 -4 10 -13 13 -25 9 -14 -4 -20 0 -25 19 -7 27 6 71 20 71 5 0 8 19 7
43 -1 25 3 40 9 36 5 -3 12 3 14 13 3 10 14 24 25 31 17 11 21 9 28 -9 10 -28
25 -8 16 21 -5 15 -14 19 -41 18 -25 -1 -33 -5 -30 -15 3 -7 1 -13 -4 -13 -6
0 -10 9 -10 19 0 13 8 21 23 23 16 2 22 10 22 29 -1 22 3 26 23 24 24 -2 44
-15 24 -15 -7 0 -12 -5 -12 -11 0 -6 8 -8 19 -4 16 5 19 -4 29 -87 7 -69 7
-95 -2 -100 -8 -6 -8 -8 2 -8 7 0 12 -13 12 -29 0 -17 5 -33 10 -36 6 -4 8
-11 5 -16 -4 -5 -1 -9 6 -9 11 0 9 37 -6 100 -4 14 -8 79 -10 145 -2 66 -4
128 -4 138 -1 14 -5 16 -21 7 -17 -9 -20 -7 -26 16 -4 16 -2 29 6 34 8 5 9 13
2 26 -5 11 -6 28 -2 39 4 11 5 32 3 48 -4 20 -1 27 10 27 8 0 18 6 20 13 4 9
6 9 6 0 1 -7 10 -13 21 -13 11 0 20 -7 20 -15 0 -8 6 -15 14 -15 8 0 18 -4 21
-10 3 -6 -1 -7 -9 -4 -20 8 -20 -3 -1 -22 8 -9 15 -20 15 -26 0 -5 -7 -8 -15
-4 -8 3 -15 1 -15 -4 0 -6 5 -10 11 -10 6 0 9 -6 6 -14 -4 -10 2 -16 16 -18
14 -2 23 -11 25 -27 2 -15 0 -21 -7 -17 -6 4 -11 2 -11 -3 0 -20 -18 -11 -24
11 -9 38 -29 6 -21 -34 6 -24 9 -28 14 -16 4 11 11 14 19 9 11 -7 11 -12 1
-28 -10 -17 -8 -27 11 -61 22 -40 23 -42 5 -68 -16 -25 -16 -33 -5 -78 7 -28
19 -59 28 -68 11 -13 13 -28 7 -55 -4 -21 -7 -63 -6 -93 1 -51 0 -53 -12 -32
-13 22 -15 23 -30 7 -22 -21 -22 -22 12 -53 33 -30 42 -71 23 -95 -9 -10 -10
-17 -2 -22 5 -3 11 2 11 12 2 27 19 -54 26 -119 l5 -58 -32 7 c-25 5 -31 3
-25 -7 4 -7 2 -16 -5 -20 -9 -5 -9 -9 -1 -14 6 -4 11 -2 11 5 0 8 7 6 19 -5
15 -14 18 -30 18 -86 -1 -76 -11 -84 -21 -18 -5 28 -10 38 -15 29 -7 -10 -9
-9 -14 3 -4 11 -16 15 -37 12 -21 -2 -30 1 -30 11 0 8 -6 13 -12 10 -7 -2 -12
-10 -10 -17 4 -18 -8 -50 -19 -50 -5 0 -9 7 -9 15 0 8 -5 15 -10 15 -14 0 -30
-44 -25 -67 2 -10 11 -58 21 -108 9 -49 21 -94 27 -100 6 -6 7 3 3 28 -6 29
-4 37 8 37 10 0 17 -13 21 -37 3 -21 10 -60 15 -86 6 -27 10 -65 10 -85 0 -33
-1 -35 -14 -16 -14 18 -15 18 -22 1 -9 -24 3 -121 16 -125 11 -4 14 -112 3
-112 -14 0 -9 -288 4 -301 22 -22 32 34 32 181 0 77 2 143 5 148 6 9 20 226
18 267 -1 17 -2 54 -3 83 0 32 -5 52 -12 52 -8 0 -7 4 1 12 10 10 15 10 23 -2
9 -13 10 -13 7 0 -3 22 11 57 25 63 12 4 13 -4 16 -88 1 -50 -4 -109 -10 -120
-11 -19 -4 -80 8 -78 7 2 16 -9 19 -23 5 -19 1 -29 -14 -40 -17 -12 -20 -19
-12 -39 5 -14 7 -25 3 -25 -3 0 1 -8 10 -18 15 -16 17 -44 15 -206 -1 -188 2
-205 35 -206 4 0 7 48 8 108 0 59 2 161 4 227 2 77 0 124 -7 132 -6 8 -8 16
-5 20 4 3 23 -31 44 -75 21 -45 41 -81 46 -82 13 0 7 34 -13 79 -11 24 -20 49
-20 56 0 10 -9 24 -50 72 -15 18 -12 33 5 27 16 -6 21 11 7 20 -5 3 -10 38
-11 77 -1 40 -6 80 -12 90 -11 22 -12 171 0 219 4 20 4 45 0 57 -10 28 11 46
48 41 39 -4 41 16 3 23 -40 9 -44 13 -30 38 8 17 8 21 -3 21 -29 0 -50 284
-26 348 6 17 6 29 -2 39 -17 19 6 94 26 87 20 -8 55 66 55 116 0 22 5 40 10
40 6 0 10 7 10 16 0 8 -5 12 -11 8 -8 -5 -8 -1 0 14 6 12 7 23 2 26 -16 10
-10 53 8 52 19 -1 29 -21 30 -60 1 -16 4 -26 8 -22 4 4 6 25 4 48 -2 27 1 38
8 34 6 -4 11 -14 11 -22 0 -8 5 -14 10 -14 17 0 11 25 -8 39 -12 9 -17 21 -14
37 2 13 -1 31 -8 39 -6 8 -9 23 -6 33 5 14 1 21 -13 25 -11 3 -22 2 -25 -1 -9
-8 -7 -32 2 -31 19 3 22 -2 8 -16 -21 -21 -23 -19 -24 20 -1 22 4 38 14 43 8
5 17 17 18 28 5 31 33 28 51 -5 18 -36 21 -37 28 -11 3 11 1 17 -4 14 -6 -3
-7 6 -3 23 4 15 13 32 21 36 7 4 13 17 13 29 0 16 3 18 13 10 10 -9 19 -7 36
4 28 20 55 11 48 -17 -5 -17 -2 -20 13 -16 11 3 21 2 23 -2 2 -3 2 -1 1 6 -2
6 4 17 13 25 34 27 94 134 117 208 34 105 44 232 22 265 -18 27 -57 33 -74 12
-6 -7 -14 -47 -18 -90 -5 -61 -10 -77 -23 -77 -12 0 -13 -2 -3 -9 20 -12 4
-80 -26 -108 -32 -29 -67 -30 -86 0 -16 24 -24 116 -12 136 4 7 2 25 -4 42 -8
19 -11 69 -8 151 5 146 24 202 82 237 30 19 34 26 26 41 -15 27 -51 50 -80 50
l-25 0 -3 123 c-4 205 -29 291 -114 383 -80 87 -235 139 -397 132 -83 -3 -95
-6 -185 -52 -53 -27 -98 -47 -99 -45 -2 2 -20 25 -41 52 -31 40 -43 47 -72 47
l-34 0 0 -315z m631 -565 c-5 -148 -19 -264 -36 -305 -6 -16 -12 -34 -13 -39
0 -5 -7 -13 -16 -18 -9 -5 -16 -21 -16 -35 0 -21 -4 -24 -23 -19 -28 7 -58
-31 -35 -45 10 -7 9 -9 -4 -9 -9 0 -19 -6 -22 -12 -3 -10 -9 -8 -19 4 -8 10
-17 15 -20 11 -4 -3 -7 -1 -7 5 0 6 5 14 10 17 6 3 10 17 10 31 0 19 -5 24
-27 24 -26 0 -26 0 -7 19 10 10 22 17 27 14 4 -2 7 3 7 11 0 20 -10 20 -38 0
-12 -8 -23 -25 -23 -37 -1 -13 -4 -8 -8 12 -3 19 -12 36 -20 39 -11 4 -13 -4
-8 -36 4 -22 10 -49 13 -59 5 -17 5 -17 -8 -1 -14 16 -16 16 -33 0 -10 -9 -15
-11 -11 -4 4 6 2 12 -4 12 -7 0 -9 7 -6 17 4 10 4 14 0 10 -9 -9 -34 39 -34
66 0 12 0 46 0 75 0 29 9 74 19 101 54 143 163 223 295 218 l60 -2 -3 -65z"/>
<path d="M4965 4019 c-154 -4 -290 -7 -302 -8 -21 -1 -23 -6 -23 -50 0 -41 4
-51 20 -56 26 -8 26 -25 0 -25 -12 0 -25 -10 -31 -24 -9 -19 -7 -30 12 -59
l23 -35 56 48 c54 46 56 47 108 42 41 -3 57 -10 72 -30 18 -23 20 -41 20 -222
l0 -197 -28 -6 c-33 -7 -82 -43 -82 -61 0 -7 17 -24 38 -37 60 -39 71 -73 73
-232 1 -138 -5 -167 -36 -167 -13 0 -25 -30 -25 -67 0 -13 5 -23 10 -23 6 0
10 -5 10 -10 0 -7 -6 -7 -19 0 -12 6 -22 6 -26 1 -3 -5 4 -12 15 -16 15 -5 20
-15 19 -38 0 -27 -2 -29 -9 -12 -8 19 -9 19 -9 -2 -1 -13 3 -23 7 -23 5 0 8
-8 7 -17 -1 -22 -19 -55 -28 -54 -45 6 -67 -18 -67 -75 0 -62 14 -84 51 -84
l31 0 -7 -52 c-4 -38 -3 -49 4 -38 7 10 11 11 11 3 0 -19 18 -16 24 5 3 9 4 5
2 -10 -2 -19 1 -28 10 -28 8 0 14 -11 14 -25 0 -14 5 -24 12 -23 7 2 14 -7 16
-19 2 -13 8 -23 13 -23 6 0 8 -4 5 -9 -4 -5 -2 -11 4 -13 13 -4 19 -58 9 -83
-6 -16 -8 -16 -8 -4 -1 9 -8 19 -16 23 -16 6 -21 -9 -6 -18 5 -3 9 -56 9 -118
1 -62 3 -129 5 -148 3 -19 6 -95 7 -167 2 -104 5 -133 15 -133 8 0 17 5 20 10
3 6 2 10 -4 10 -6 0 -8 7 -5 15 4 8 9 13 14 10 7 -4 12 -38 30 -205 4 -36 8
-51 9 -35 2 17 4 49 6 73 4 53 12 63 31 38 13 -18 14 -14 14 37 0 31 5 57 10
57 6 0 10 -9 10 -20 0 -11 5 -20 10 -20 6 0 10 18 10 39 0 22 5 43 10 46 6 4
10 -15 10 -49 0 -77 17 -71 18 7 5 222 9 278 20 289 7 7 12 24 12 39 0 15 4
30 9 34 15 9 138 -122 196 -209 170 -256 249 -510 249 -801 0 -129 -4 -164
-26 -250 -45 -175 -100 -269 -211 -363 -114 -97 -238 -144 -362 -137 -93 6
-123 13 -220 56 -50 21 -93 39 -97 39 -4 0 -5 -15 -4 -33 2 -17 1 -22 -1 -10
-2 12 -11 27 -19 33 -8 7 -14 20 -14 29 0 10 -14 27 -30 40 -17 12 -75 65
-130 118 -81 77 -103 93 -114 84 -18 -15 -30 1 -21 30 4 12 1 27 -9 38 -16 17
-48 64 -152 221 -31 47 -67 97 -79 112 -13 15 -26 33 -28 40 -4 10 -9 8 -17
-4 -15 -24 -29 -23 -23 2 3 11 -5 33 -18 51 -17 25 -20 35 -11 49 8 13 7 25
-4 46 -21 39 -20 39 -51 14 -25 -19 -28 -20 -31 -5 -2 9 1 29 8 45 10 23 8 34
-9 68 -12 23 -18 48 -15 56 5 13 -11 54 -25 66 -4 3 -12 21 -18 40 -16 49
-101 241 -115 257 -8 10 -14 11 -25 2 -12 -10 -9 -17 17 -44 16 -17 30 -36 30
-43 0 -15 -42 -26 -69 -17 -16 5 -19 12 -14 36 3 19 0 36 -9 47 -8 9 -20 45
-26 80 -13 77 -46 129 -69 110 -9 -7 -34 -13 -57 -13 -41 0 -41 0 -39 -35 2
-42 26 -96 73 -168 30 -46 39 -52 61 -48 24 5 27 1 40 -52 7 -31 12 -71 10
-88 -2 -24 4 -36 21 -48 31 -22 38 -20 38 10 0 15 4 23 10 19 6 -4 8 -21 5
-38 -5 -25 1 -43 26 -82 31 -50 32 -50 47 -27 15 23 32 29 32 12 0 -5 9 -19
20 -30 24 -24 27 -70 5 -70 -9 0 -15 -9 -15 -21 0 -15 5 -19 15 -15 10 3 15
-1 15 -12 0 -24 70 -57 83 -39 6 8 7 7 4 -5 -3 -9 0 -24 8 -35 8 -10 11 -30 8
-45 -3 -17 -1 -28 5 -28 6 0 9 -7 5 -16 -4 -10 -8 -12 -13 -5 -4 8 -13 5 -25
-9 -19 -21 -45 -27 -45 -9 0 5 -5 7 -10 4 -15 -9 25 -62 70 -91 30 -20 39 -33
44 -67 5 -31 3 -44 -8 -52 -13 -10 -13 -15 4 -42 10 -17 25 -35 32 -40 7 -4
21 -25 30 -45 11 -25 24 -38 37 -38 12 0 20 -9 24 -28 3 -16 23 -49 44 -72 95
-109 285 -291 351 -337 88 -62 257 -130 351 -142 207 -26 390 45 563 219 72
73 94 103 131 181 52 106 84 222 94 334 5 61 8 73 19 64 20 -16 30 16 17 55
-12 38 -8 241 5 276 5 14 7 49 4 78 -2 29 1 86 8 127 7 40 10 85 6 99 -7 30
-31 34 -45 8 -10 -19 -13 -136 -7 -267 2 -44 0 -89 -5 -100 -6 -16 -8 -13 -8
15 -2 53 -77 368 -92 380 -10 9 -28 68 -22 74 4 3 2 6 -3 6 -18 0 -36 67 -24
89 9 17 8 20 -6 14 -14 -5 -16 2 -13 50 3 33 0 57 -6 57 -5 0 -10 -20 -10 -45
0 -24 -3 -41 -6 -37 -3 4 -32 45 -65 92 -68 98 -180 219 -241 262 -24 16 -43
35 -43 42 0 8 -9 16 -21 19 -13 3 -18 10 -14 17 8 14 25 159 24 213 0 25 4 36
11 32 5 -3 10 -2 10 4 0 5 -6 12 -12 14 -10 4 -10 7 -1 14 7 5 13 23 15 41 4
52 28 39 29 -15 0 -27 2 -59 3 -73 1 -14 3 -42 4 -62 2 -37 3 -37 22 -21 11
10 20 24 20 32 0 8 5 29 12 47 9 26 9 41 -2 73 -7 23 -18 42 -24 43 -6 1 14 4
44 7 l55 6 8 45 c13 70 -21 138 -37 75 -4 -14 -11 -23 -15 -20 -10 6 9 65 21
65 4 0 8 7 8 16 0 13 -3 14 -15 4 -12 -10 -15 -7 -20 12 -4 13 -5 28 -4 34 4
15 -23 158 -33 169 -4 5 -8 17 -8 26 0 10 -11 30 -25 45 -23 25 -25 34 -25
132 0 87 4 113 21 149 11 24 24 43 27 43 4 0 16 7 26 15 20 15 20 15 0 31 -18
14 -18 15 4 4 12 -6 27 -8 33 -4 17 10 -41 63 -78 70 l-33 6 0 303 c0 234 3
304 13 308 30 11 -15 12 -278 6z m-849 -3073 c28 7 54 -10 54 -36 0 -10 7 -20
15 -24 8 -3 15 -13 15 -23 -1 -17 -2 -17 -15 1 -8 11 -18 16 -22 13 -13 -14
34 -62 63 -65 16 -2 32 -9 36 -15 12 -20 9 -37 -7 -37 -10 0 -15 -10 -15 -30
0 -39 -13 -38 -31 3 -10 22 -20 31 -33 29 -17 -3 -18 1 -13 33 6 34 4 38 -24
48 -16 6 -27 17 -25 23 3 7 -13 24 -35 38 -46 31 -55 62 -13 46 14 -6 36 -7
50 -4z"/>
<path d="M6160 1883 c0 -27 11 -74 26 -111 24 -59 24 -66 11 -94 l-15 -31 -8
73 c-9 71 -25 98 -38 65 -3 -9 -3 -22 1 -28 4 -7 8 -16 9 -22 15 -97 43 -169
44 -113 1 20 3 19 19 -11 18 -34 19 -34 26 -11 l8 24 13 -30 14 -29 -5 30
c-12 63 -23 101 -39 132 -9 17 -19 56 -22 85 -9 98 -14 118 -29 118 -11 0 -15
-13 -15 -47z"/>
</g>
</svg>
